<svg width="125" height="39" viewBox="0 0 125 39" fill="none" xmlns="http://www.w3.org/2000/svg">
<path fill-rule="evenodd" clip-rule="evenodd" d="M73.7928 0.601903C73.066 0.698045 72.0035 1.02827 71.7229 1.24145C70.8686 1.89354 68.8455 4.5019 67.3537 6.872C66.9881 7.44885 66.2784 8.68615 65.7683 9.61412C64.7185 11.5411 64.2297 12.3437 63.1544 13.9238L62.3936 15.0398L62.2279 14.6511C62.0153 14.1537 61.7816 13.2675 61.6541 12.5025C61.5478 11.8546 61.3863 6.55432 61.4586 6.06107C61.5053 5.74338 61.3991 5.65142 61.076 5.73502C60.5703 5.86878 60.26 6.62956 59.75 8.99547C59.2782 11.1816 59.1677 11.98 59.1294 13.5935C59.0742 15.7087 59.2867 17.155 59.818 18.2501C60.7615 20.2106 61.1398 20.7415 62.1684 21.5566C62.8952 22.1292 63.0949 22.1794 63.7495 21.9244C64.2425 21.7321 64.8035 21.2598 65.2838 20.6411C67.7234 17.4726 68.3865 16.4193 70.1418 12.9456C70.5201 12.1974 71.1619 11.0228 71.5742 10.3331L72.318 9.07907L72.3732 9.92763C72.437 10.9141 72.3222 13.9279 72.1692 15.3115C72.0375 16.4778 71.6847 18.3296 71.2087 20.3234C71.0131 21.1553 70.7666 22.355 70.6689 22.9903C70.5711 23.6257 70.3841 24.7878 70.2608 25.5736C69.9761 27.3627 69.9931 27.7013 70.4521 29.1476C70.8176 30.3013 70.8856 30.4016 71.5912 30.7234C71.9227 30.8781 71.9482 30.8781 72.25 30.7569C72.641 30.6022 72.8535 30.3389 73.2233 29.5614C73.7758 28.3952 74.1073 27.1955 74.4048 25.2726C74.7619 22.9485 74.8766 22.3299 75.2676 20.6035C75.7012 18.6723 75.9604 17.2636 76.1049 16.0723C76.2495 14.8601 76.2282 10.1826 76.0667 8.37264C75.9944 7.58679 75.9094 5.81444 75.8754 4.43084C75.8414 3.04724 75.7904 1.76396 75.7607 1.57586C75.7012 1.16203 75.5694 0.990649 75.2549 0.932129C75.1231 0.907048 74.9319 0.802547 74.8299 0.706405C74.6386 0.518302 74.5196 0.505762 73.7928 0.601903ZM17.1284 4.26364C17.0987 4.2929 16.8734 4.34306 16.6311 4.36814C16.3846 4.3974 16.0403 4.46846 15.8618 4.53116C15.6833 4.59387 15.3518 4.68583 15.118 4.74017C14.5868 4.86139 14.4125 5.07039 14.1702 5.86878C14.0682 6.19901 13.9875 6.50415 13.9875 6.54178C13.9875 6.5794 13.8472 6.94306 13.6729 7.34435C13.4987 7.74563 13.0439 8.95785 12.6614 10.0279C12.2789 11.1022 11.5308 13.1128 11.0038 14.4964C10.4768 15.88 9.86047 17.5353 9.63096 18.1749C9.09542 19.6839 8.55989 20.9421 7.65459 22.8357C6.89804 24.4199 6.46026 25.235 6.36676 25.235C6.33701 25.235 6.18825 24.8588 6.03949 24.3948C5.77172 23.5672 5.76747 23.5337 5.70797 21.937C5.67397 21.0466 5.61021 19.8929 5.55921 19.3746C5.3892 17.5144 5.61021 13.1296 6.07349 9.20448C6.15 8.54403 6.21375 7.69129 6.21375 7.31091V6.61284L5.98424 6.49161C5.72072 6.34949 5.21069 6.39129 4.93867 6.57522C4.62415 6.7884 3.92711 8.66943 2.68604 12.6447C1.48322 16.507 1.11769 18.0997 0.820176 20.8083C0.582162 22.9861 0.645916 24.4157 1.04119 25.6865C1.33021 26.6144 2.79229 29.5781 3.25132 30.1633C3.37883 30.3263 3.59559 30.5437 3.73585 30.644C3.87611 30.7485 4.14388 30.9659 4.32664 31.1247C4.77291 31.5135 5.16394 31.6932 5.58046 31.6932C6.06924 31.6974 7.77359 31.3379 8.13486 31.1582C8.52589 30.9617 9.20593 30.1926 9.75846 29.3064L10.1962 28.6083L10.3705 29.2604C10.5873 30.1132 10.8465 30.7443 11.4756 31.944C12.2066 33.3402 12.4404 33.6997 12.7761 33.9337C12.9377 34.0466 13.2267 34.2807 13.4222 34.4562C13.6177 34.6318 13.8557 34.7948 13.9492 34.8199C14.217 34.891 14.8248 34.5733 15.1393 34.2013C15.7811 33.4405 17.2474 29.7913 17.7022 27.8308C17.8509 27.1829 17.885 26.8402 17.8892 26.0042C17.8935 24.909 17.7149 23.6968 17.4642 23.145C17.2219 22.6099 16.7671 22.7688 15.2923 23.9141C14.999 24.144 14.7483 24.3196 14.7355 24.3112C14.6505 24.2193 15.0713 19.7132 15.3305 17.9534C15.5261 16.6199 15.5346 16.6032 16.2444 14.6845C16.5036 13.9823 16.9456 12.7826 17.2177 12.0177C17.4939 11.2527 17.885 10.1784 18.0847 9.62666C18.6415 8.10512 18.8795 6.95142 18.8795 5.74338C18.8795 5.01187 18.786 4.82795 18.3695 4.75689C18.1825 4.72763 17.987 4.61895 17.8254 4.45592C17.5789 4.22184 17.2559 4.12988 17.1284 4.26364ZM52.7795 4.90737C52.465 5.02023 52.3928 5.14981 51.4875 7.34435C51.0964 8.2974 50.4122 9.86075 49.9659 10.8263C47.5942 16.0013 47.2032 17.0212 46.1492 20.7958C45.8346 21.9286 45.3671 23.5337 45.1163 24.3656C44.5085 26.3636 44.262 27.2665 43.9645 28.5582C43.4927 30.6106 43.0167 33.9337 43.0847 34.7112C43.1187 35.0791 43.4842 36.0238 43.7138 36.3164C43.7478 36.3582 43.8923 36.6382 44.041 36.935C44.228 37.3112 44.3853 37.5286 44.5596 37.6415C44.6998 37.7292 44.9548 37.9341 45.1291 38.0929C45.4819 38.4106 45.5541 38.4273 45.8941 38.2768C46.2044 38.1389 46.5147 37.7794 46.9099 37.1064C47.2542 36.5212 47.3137 36.4669 48.8566 35.2505C50.5779 33.9003 50.9902 33.6119 53.3278 32.1739C55.8992 30.5939 57.1743 29.6492 57.6631 28.9636C58.2156 28.1945 59.0529 26.2424 59.2909 25.1723C59.4014 24.6707 59.4312 23.9016 59.3419 23.7595C59.2654 23.6382 58.3219 23.1617 58.0456 23.1074C57.7906 23.0572 56.1627 23.2913 55.8695 23.4251C55.7717 23.471 55.402 23.5755 55.0492 23.6591C54.6964 23.7427 54.2756 23.8723 54.1141 23.9476C53.6508 24.1607 50.5397 26.1588 49.1286 27.1453C48.8608 27.3334 48.6313 27.4714 48.6185 27.4588C48.6058 27.4463 48.7121 26.999 48.8523 26.4723C49.3283 24.7083 49.7364 22.8148 50.0764 20.8042C50.5057 18.2543 50.6459 17.6858 52.1888 12.1681C53.0091 9.23792 53.5403 6.84274 53.6126 5.75592C53.6551 5.11219 53.6508 5.08293 53.4851 4.94917C53.2938 4.79033 53.1323 4.78197 52.7795 4.90737ZM36.1568 6.09451C34.4567 6.57104 33.0244 7.29419 30.6145 8.89097C27.9538 10.655 26.4152 12.4273 24.9021 15.4746C23.3805 18.5386 22.7982 20.8669 22.4752 25.164C22.3817 26.4222 22.471 28.7421 22.658 29.8206C22.8152 30.736 23.236 31.7225 23.9288 32.7884C24.1881 33.1897 25.0764 33.8919 25.6927 34.1845C26.3557 34.498 27.5925 34.8157 28.5616 34.9202C30.6867 35.1501 32.3528 34.544 35.3748 32.4373C37.3809 31.037 38.2097 30.1382 39.3232 28.1652C40.0713 26.836 40.305 26.4849 41.3761 25.0845C42.9445 23.0321 44.0793 21.2723 44.6828 19.9598C45.2396 18.7392 45.3161 18.4926 45.3543 17.7443C45.3926 16.9627 45.3288 16.8038 44.9208 16.7077C44.8018 16.6784 44.6403 16.599 44.5638 16.5238C44.4873 16.4485 44.33 16.3691 44.2068 16.344C43.7435 16.2479 42.0562 16.3064 40.101 16.4861C37.4361 16.7328 35.94 16.8247 34.5757 16.8289C33.0031 16.8373 31.422 16.9961 30.725 17.2218C30.5252 17.2845 30.1044 17.3974 29.7899 17.4726C29.1184 17.6273 28.8931 17.8196 28.7444 18.3672C28.6083 18.8688 28.7784 19.6045 29.2161 20.4279C29.4031 20.7791 29.7049 21.3517 29.8877 21.7029C30.1299 22.1627 30.3042 22.4009 30.5252 22.5681C30.6952 22.6935 30.997 22.9402 31.1925 23.1157C31.4645 23.354 31.6133 23.4334 31.796 23.4334C32.3868 23.4334 37.4574 22.0791 38.945 21.5231L39.2552 21.4061L39.1235 21.5816C37.8526 23.2955 37.6699 23.5755 36.9303 24.9884C36.2078 26.3636 35.838 26.9154 35.1452 27.6386C33.8532 28.9887 31.1287 31.0035 30.0619 31.4006C29.6964 31.5344 29.5349 31.5511 28.9186 31.5135C28.0856 31.4591 27.2355 31.3045 26.598 31.0829C25.9052 30.8447 25.5397 30.3807 25.3612 29.5112C25.2251 28.8341 25.1826 27.2958 25.2804 26.3177C25.4037 25.0302 25.9009 21.9913 26.1474 21.0006C27.0187 17.5061 28.7189 14.3627 30.7972 12.4189C31.5155 11.746 33.3941 10.1701 34.4439 9.35496C36.4798 7.77907 37.3299 7.38197 38.4562 7.47811C38.9492 7.51991 39.0512 7.50737 39.1745 7.39451C39.3445 7.23567 39.3657 6.98068 39.2085 6.98068C39.149 6.98068 38.9577 6.84692 38.7877 6.6839C38.6177 6.52087 38.3032 6.29933 38.0864 6.19483C37.7549 6.03599 37.5976 6.00673 37.0494 6.01091C36.6966 6.02345 36.2928 6.05689 36.1568 6.09451Z" fill="white"/>
<path d="M88.1545 26.4307C88.248 26.297 88.384 26.1047 88.4563 26.0127C88.656 25.7619 88.7878 25.6198 89.0555 25.3815C89.3446 25.1224 89.4083 25.0889 89.5571 25.0931C89.7823 25.1015 89.9268 25.2645 89.9226 25.5111C89.9226 25.5989 89.8631 25.8413 89.7738 26.1381C89.6038 26.6982 89.5656 26.8654 89.4381 27.597C89.3361 28.1863 89.2681 28.4246 89.1618 28.5709C89.0981 28.6587 89.0853 28.6671 88.9833 28.6712C88.8983 28.6754 88.86 28.6587 88.8048 28.6085C88.6773 28.4915 88.6688 28.3076 88.7453 27.4423C88.7665 27.1957 88.7835 26.995 88.7793 26.9908C88.775 26.9867 88.707 27.0577 88.622 27.1413C88.3033 27.4716 87.9207 27.5384 87.755 27.296C87.653 27.1497 87.687 26.995 87.8697 26.8069C87.9335 26.7317 88.061 26.5687 88.1545 26.4307Z" fill="white"/>
<path fill-rule="evenodd" clip-rule="evenodd" d="M90.0797 27.9984C90.0372 27.7518 90.1732 26.6775 90.3007 26.2344C90.3772 25.9794 90.4495 25.8917 90.6068 25.8875C90.7003 25.8833 90.7215 25.8958 90.7683 25.9544C90.815 26.0129 90.8278 26.0171 90.8405 25.9836C90.934 25.7495 91.1168 25.6074 91.308 25.6074C91.6821 25.6074 91.8691 26.0505 91.8011 26.7778C91.7416 27.409 91.5333 27.8856 91.1465 28.2952C90.9595 28.4917 90.9425 28.5042 90.8193 28.5418C90.6323 28.5962 90.458 28.5544 90.3135 28.4164C90.186 28.291 90.1052 28.1447 90.0797 27.9984ZM90.781 27.2753C90.7768 27.1749 90.798 27.1122 90.8788 26.9576C90.934 26.8531 90.985 26.7611 90.9893 26.7528C90.9935 26.7486 90.9935 26.7778 90.9893 26.8196C90.9808 26.9283 90.8788 27.2544 90.8278 27.3338L90.7895 27.3965L90.781 27.2753Z" fill="white"/>
<path fill-rule="evenodd" clip-rule="evenodd" d="M92.0942 26.8734C92.1537 26.6686 92.2132 26.4261 92.2345 26.33C92.2727 26.1377 92.3535 26.0374 92.4852 25.9956C92.583 25.9663 92.7318 26.0123 92.7913 26.0875L92.838 26.1461L92.9358 26.0416C93.1695 25.7949 93.399 25.7197 93.5988 25.8158C93.8708 25.9496 93.9303 26.33 93.8028 27.0824C93.7093 27.6384 93.5988 27.9393 93.2843 28.4827C93.042 28.9049 92.9698 28.9843 92.7828 29.0554C92.5192 29.1515 92.277 29.0345 92.1622 28.7502C92.022 28.4117 91.9327 27.7847 91.9667 27.4126C91.9837 27.3207 92.0347 27.0782 92.0942 26.8734ZM92.7743 27.4711C92.753 27.492 92.753 27.4544 92.7913 27.0908C92.804 26.9486 92.8295 26.84 92.8508 26.8316C92.8678 26.8232 92.9103 26.7898 92.94 26.7605L92.9953 26.702L92.9825 26.7773C92.9698 26.8776 92.7998 27.4461 92.7743 27.4711Z" fill="white"/>
<path d="M114.825 11.9506C114.689 12.1722 114.6 12.4063 114.425 12.9748C114.243 13.5809 114.166 13.8986 114.136 14.1953C114.102 14.5172 114.124 14.8809 114.183 15.0313C114.366 15.4828 114.914 15.5121 115.182 15.0857C115.369 14.7805 115.458 14.3709 115.573 13.2632C115.666 12.3394 115.645 11.9506 115.479 11.6873C115.382 11.5285 115.297 11.5076 115.152 11.5953C115.012 11.6831 114.935 11.7625 114.825 11.9506Z" fill="white"/>
<path d="M112.938 15.1022C112.912 15.2193 112.989 16.3981 113.04 16.6781C113.244 17.744 113.307 18.0032 113.46 18.3878C113.507 18.5048 113.626 18.7389 113.724 18.9019C113.919 19.2363 114.013 19.3366 114.485 19.7087C114.693 19.8717 114.761 19.9135 114.897 19.9469C115.377 20.0723 115.726 19.88 116.567 19.0482L116.937 18.6804L117.077 18.3878C117.154 18.2289 117.286 17.9948 117.371 17.8736C117.549 17.6061 117.621 17.4138 117.711 16.9331C117.817 16.3604 117.813 16.2016 117.672 16.0678C117.583 15.9842 117.341 15.9884 117.196 16.072C116.967 16.21 116.686 16.5736 116.529 16.9415C116.487 17.0418 116.389 17.1964 116.304 17.3009C116.215 17.4096 116.104 17.5894 116.032 17.744C115.921 17.9781 115.887 18.0241 115.692 18.2206C115.573 18.3418 115.424 18.4755 115.356 18.5215C115.292 18.5675 115.195 18.6511 115.144 18.7013L115.05 18.7974L114.884 18.6636C114.744 18.5508 114.693 18.4923 114.561 18.2749C114.353 17.9321 114.349 17.9238 114.183 17.4138C114 16.8579 113.885 16.4399 113.783 15.9508C113.673 15.4157 113.562 15.1273 113.431 15.0019C113.265 14.8473 113.129 14.8347 113.01 14.9601C112.984 15.0019 112.946 15.0646 112.938 15.1022Z" fill="white"/>
<path d="M117.209 11.7338C116.72 12.3149 116.376 13.0255 116.138 13.9409C115.904 14.8438 116.172 15.4959 116.771 15.4666C116.967 15.4583 117.052 15.4165 117.197 15.266C117.32 15.1364 117.354 14.9943 117.396 14.4467C117.418 14.1708 117.481 13.6734 117.537 13.3432C117.592 13.0129 117.668 12.4319 117.715 12.0557C117.783 11.4872 117.787 11.3618 117.745 11.3242C117.69 11.274 117.668 11.2824 117.511 11.4162C117.46 11.4454 117.328 11.5917 117.209 11.7338Z" fill="white"/>
<path fill-rule="evenodd" clip-rule="evenodd" d="M96.4637 31.9445C96.4679 32.0239 96.4891 32.0615 96.5869 32.1451C96.7357 32.2747 96.9652 32.3499 97.6155 32.4837C98.2828 32.6216 98.797 32.6718 99.4601 32.6676C100.705 32.6592 101.636 32.6969 102.172 32.7721C103.285 32.9309 106.575 33.5998 107.327 33.8171C107.48 33.8589 107.803 33.9718 108.046 34.0637C108.292 34.1557 108.713 34.2936 108.985 34.3731C109.469 34.511 109.554 34.5445 109.542 34.603C109.533 34.6531 108.475 34.7033 107.782 34.6866C107.021 34.6657 106.669 34.6448 106.362 34.603C106.163 34.5737 106.154 34.5695 106.201 34.5277C106.328 34.4149 106.354 34.3689 106.311 34.3271C106.286 34.3062 106.137 34.256 105.976 34.2184C105.814 34.1808 105.5 34.1014 105.279 34.0387C104.284 33.7628 104.072 33.721 102.72 33.5454C102.214 33.4785 101.581 33.3949 101.317 33.3573C99.7278 33.1316 98.1935 32.9978 97.9937 33.0647C97.8875 33.1023 97.8152 33.211 97.8365 33.3072C97.8535 33.3949 97.9512 33.4869 98.0065 33.4702C98.032 33.4618 98.0957 33.4702 98.1552 33.4869C98.2147 33.5036 98.372 33.5371 98.5038 33.558C98.7758 33.6039 98.8055 33.6123 98.695 33.6374C98.5123 33.675 98.44 33.8965 98.5548 34.0554C98.644 34.1724 98.797 34.2435 99.2178 34.3605C99.6938 34.4943 100.055 34.557 101.05 34.6699C101.487 34.72 102.125 34.8036 102.469 34.8496C102.814 34.8998 103.345 34.9625 103.655 34.9917C104.492 35.0753 104.888 35.1297 105.512 35.2467C106.66 35.4641 106.915 35.4891 107.608 35.4348C107.812 35.4181 108.322 35.4139 108.738 35.4306C109.835 35.4641 110.175 35.4181 110.379 35.2091C110.579 35.0001 110.579 34.8287 110.379 34.3856C110.281 34.1682 110.217 34.0637 110.111 33.9509C109.941 33.7711 109.835 33.721 109.248 33.5329C109.01 33.4576 108.619 33.3197 108.386 33.2319C108.148 33.14 107.82 33.0229 107.655 32.9727C107.315 32.8641 105.721 32.4837 105.177 32.375C104.977 32.3374 104.382 32.212 103.855 32.0949C102.372 31.7689 101.968 31.7145 101.113 31.6978C100.829 31.6936 100.191 31.6811 99.6981 31.6686C99.2051 31.656 98.6015 31.656 98.355 31.6644C98.1085 31.6727 97.7472 31.6686 97.5432 31.6518C97.3434 31.6351 97.0884 31.6268 96.9779 31.6309C96.6464 31.6518 96.4552 31.7647 96.4637 31.9445ZM99.3028 33.7293C99.3496 33.7711 101.101 33.9801 101.13 33.9467C101.143 33.9342 101.096 33.9258 100.132 33.8046H100.123C99.4218 33.7168 99.2943 33.7001 99.2901 33.7168C99.2901 33.7168 99.2986 33.7252 99.3028 33.7293Z" fill="white"/>
<path fill-rule="evenodd" clip-rule="evenodd" d="M90.8363 3.91239C90.8023 4.01689 90.7555 4.18828 90.7343 4.2886C90.7045 4.4349 90.6535 4.5394 90.5175 4.75676C90.084 5.4423 89.7185 6.28249 89.3997 7.34004L89.3274 7.57831L89.0257 7.75387C88.7282 7.92943 88.7239 7.92943 88.5411 7.91689C88.1331 7.88763 87.9291 7.96705 87.3043 8.41432C86.9175 8.69021 86.909 8.69439 86.9175 8.61914C86.9303 8.48538 86.8665 8.51046 86.6795 8.70275C86.5648 8.81979 86.4713 8.89921 86.399 8.92847C86.229 9.00371 86.161 9.12075 86.0845 9.45934C85.9995 9.83972 85.9995 9.98185 86.076 10.0863C86.1227 10.149 86.127 10.1741 86.0972 10.1908C86.076 10.2034 85.9655 10.2703 85.8507 10.3372C85.6637 10.45 85.6382 10.4542 85.5745 10.4166C85.4852 10.3622 85.3194 10.404 85.2259 10.5044C85.1409 10.5921 84.8392 11.1648 84.6139 11.6539C84.4184 12.0844 84.1081 12.9246 83.7001 14.1159C83.5386 14.5883 83.2751 15.3407 83.1136 15.7838C82.5908 17.2343 82.2933 18.1873 82.0213 19.2574C81.932 19.6169 81.7662 20.2564 81.6557 20.6786C81.5452 21.1008 81.3455 21.9326 81.2095 22.522C81.0734 23.1114 80.9289 23.7343 80.8864 23.9015C80.7207 24.5535 80.1894 26.514 79.9599 27.3082C79.2671 29.7326 78.9738 31.2166 78.9908 32.1863C78.9993 32.5208 78.9908 32.5709 78.9271 32.6336C78.8463 32.7172 78.8378 32.8259 78.9016 32.9262C78.9781 33.0433 79.1991 33.1394 79.6581 33.2606C80.5209 33.4905 80.6739 33.4947 81.8215 33.3484C81.83 33.3484 81.8385 33.4111 81.8427 33.4905L81.847 33.6326L81.66 33.6452C81.3497 33.6619 81.2435 33.7288 81.354 33.8291C81.439 33.9085 82.5653 34.2011 82.9393 34.2429C83.0626 34.2555 83.6449 34.2555 84.2356 34.2429L85.3067 34.2179L85.2387 34.36C85.1027 34.64 85.1792 34.9954 85.4257 35.2545C85.5575 35.3925 85.583 35.4092 85.7955 35.4761C85.9697 35.5304 86.0972 35.5471 86.3353 35.5388C86.6923 35.5262 88.0396 35.6433 88.6644 35.7352C89.506 35.8648 89.9097 35.869 90.9043 35.7561C91.5163 35.6892 91.8096 35.6934 92.7701 35.7979C93.1314 35.8355 93.5224 35.8773 93.6372 35.8899C93.752 35.9024 94.1557 35.9609 94.5298 36.0195C94.9038 36.078 95.3161 36.1323 95.4436 36.1449C95.7666 36.1741 96.2809 36.1658 96.6209 36.1281L96.9056 36.0947L97.0162 36.195C97.1734 36.3413 97.4752 36.7426 97.8152 37.2609C97.9767 37.5076 98.1595 37.7667 98.2232 37.8378C98.4145 38.051 98.644 38.1262 98.865 38.0426C99.018 37.9841 99.0945 37.9089 99.137 37.7626L99.171 37.6455L99.2688 37.6539C99.8468 37.7082 100.591 37.6915 101.147 37.6163C101.56 37.5577 101.891 37.3905 102.044 37.1564C102.125 37.031 102.121 36.797 102.036 36.659L101.968 36.5462L102.371 36.5921C102.592 36.6172 102.979 36.6381 103.23 36.6381C103.855 36.6381 104.203 36.6632 104.909 36.751C106.022 36.8889 106.341 36.9015 107.191 36.8179C107.846 36.7552 108.271 36.7552 109.134 36.8262C110.341 36.9265 110.838 36.9307 111.446 36.8555C111.578 36.8388 111.697 36.8262 111.718 36.822C111.735 36.822 111.76 36.8722 111.773 36.9391C111.837 37.3027 112.1 37.5201 112.436 37.4908C112.619 37.4741 112.742 37.4031 112.882 37.2317C113.01 37.077 113.04 36.9934 113.146 36.5336C113.235 36.1281 113.367 35.8355 113.766 35.1375C114.17 34.4352 114.336 34.0799 114.463 33.6661C114.531 33.4362 114.565 33.3693 114.608 33.3526C114.689 33.3275 114.782 33.2188 114.812 33.1227C114.846 33.0056 114.82 32.851 114.74 32.6462C114.676 32.4873 114.672 32.4204 114.701 31.9272C114.752 31.0452 114.88 30.4182 115.186 29.5278C115.382 28.9593 116.461 26.2632 116.627 25.9163C116.844 25.4732 117.048 25.1471 117.558 24.4365C118.433 23.2076 118.748 22.614 119.198 21.3307C119.275 21.1092 119.491 20.5156 119.674 20.014C120.427 17.9658 120.546 17.4767 120.775 15.5288C120.903 14.4545 120.937 14.2455 121.017 13.9738C121.119 13.631 121.196 13.4889 121.459 13.1462C121.889 12.5818 122.054 12.2851 122.182 11.842L122.25 11.5995L122.407 11.5452C122.535 11.4992 122.59 11.4616 122.709 11.3362C123.074 10.9558 123.249 10.4375 123.376 9.36738C123.431 8.91175 123.516 8.41432 123.597 8.08828C123.704 7.65355 123.708 7.54487 123.631 7.21882C123.538 6.8259 123.478 6.72139 123.181 6.47477C123.002 6.32429 122.879 6.24905 122.637 6.12783C122.309 5.9648 121.311 5.34197 120.813 4.98249C120.303 4.61882 119.917 4.36384 119.466 4.10467C118.531 3.56545 118.463 3.53619 117.298 3.1558C116.385 2.85902 115.836 2.75451 114.922 2.70017C114.68 2.68763 114.31 2.65837 114.098 2.64165C113.877 2.62075 113.605 2.62075 113.456 2.64165C113.312 2.66255 112.959 2.68763 112.67 2.70435C112.351 2.72107 112.011 2.76287 111.811 2.80885C111.629 2.85065 111.361 2.905 111.221 2.93008C111.076 2.95516 110.787 3.01368 110.579 3.06384C110.37 3.114 110.005 3.16834 109.763 3.18924C109.236 3.23104 109.134 3.25612 108.513 3.48602C108.139 3.62397 107.927 3.68249 107.604 3.73265C107.37 3.77027 106.962 3.84969 106.694 3.90403C106.129 4.02525 105.738 4.08377 105.283 4.10885C104.973 4.12557 104.951 4.12139 104.871 4.04615C104.709 3.89149 104.484 3.88313 104.297 4.02107C104.097 4.17156 104.042 4.18828 103.838 4.17156C103.545 4.14648 103.43 4.20082 103.205 4.46416C103.103 4.58538 102.992 4.74004 102.945 4.84455L102.86 5.02011L102.537 5.09535C102.359 5.13715 102.184 5.17059 102.142 5.17059C102.104 5.17059 101.904 5.08281 101.7 4.98249C101.079 4.67316 100.608 4.56866 100.093 4.62718C99.8596 4.65226 99.7066 4.68988 99.0478 4.88217C98.729 4.97413 98.542 4.96995 98.015 4.85291C97.2202 4.67316 96.9184 4.6439 95.9663 4.64808C95.384 4.65226 95.3203 4.6439 95.0398 4.55612C94.874 4.50178 94.5553 4.36802 94.3257 4.25516C93.5947 3.89149 93.2759 3.79535 92.6469 3.76191C92.3494 3.74519 92.1921 3.71593 92.0731 3.65323C91.9073 3.56545 91.5758 3.4484 91.4441 3.43586C91.1763 3.4066 90.9425 3.58635 90.8363 3.91239ZM87.0663 9.90242L86.9941 10.3539L87.1726 10.195C87.2703 10.1072 87.3808 10.0195 87.4191 10.0027C87.5253 9.95258 87.6401 9.96512 87.6826 10.032C87.7293 10.1031 87.6358 10.3999 87.4021 10.9056C87.0535 11.6706 86.7348 12.4899 86.5265 13.1754C86.3735 13.677 86.2758 14.0825 86.0462 15.1442C85.8295 16.1349 85.685 16.7201 85.2854 18.1581C85.1282 18.7224 84.9327 19.4539 84.8434 19.7799C84.6479 20.5114 84.1421 22.2044 83.8446 23.1156C83.4791 24.2275 82.9606 25.9748 82.731 26.8651C82.374 28.2529 81.6047 30.8571 81.3837 31.4507C81.3157 31.6304 81.2605 31.7851 81.2605 31.7934C81.2605 31.8018 81.2987 31.806 81.3497 31.7976C81.4007 31.7892 81.4815 31.7809 81.5367 31.7725C81.592 31.7642 81.762 31.7642 81.9235 31.7725L82.2125 31.7851L82.3698 31.2835C82.4548 31.0076 82.5993 30.6063 82.6885 30.3931C82.8331 30.0462 82.8458 30.0002 82.8033 29.9584C82.748 29.9082 82.731 29.7368 82.7778 29.6908C82.7948 29.6741 82.7863 29.6031 82.765 29.5362C82.7225 29.4024 82.7438 29.277 82.8245 29.1934C82.8968 29.1182 82.9138 29.0388 83.0626 28.1693C83.1348 27.7429 83.2241 27.2455 83.2623 27.0658C83.3728 26.56 83.6448 25.6404 83.9041 24.913C84.2739 23.8722 84.4736 23.241 84.7669 22.1751C85.1069 20.9294 85.4682 19.7423 85.94 18.2709C86.144 17.6397 86.4883 16.5069 86.7093 15.7545C87.5296 12.9246 87.7888 12.1011 88.3286 10.6005C88.4944 10.1365 88.7154 9.49696 88.8217 9.18345C88.9874 8.68184 89.0002 8.61914 88.9364 8.67767C88.6346 8.94519 88.3924 8.99535 88.6346 8.74037L88.7196 8.6484L88.5369 8.65676C88.4136 8.66094 88.3371 8.68185 88.3031 8.71947C88.2011 8.82397 87.7676 9.10821 87.4658 9.26705C87.2958 9.35484 87.1556 9.43008 87.1513 9.43426C87.1386 9.45098 87.1046 9.6558 87.0663 9.90242ZM85.719 11.123C85.6935 11.3195 85.3577 12.4063 85.0134 13.4304C84.8817 13.8233 84.6522 14.513 84.5077 14.9687C84.3631 15.4243 84.1676 16.0346 84.0699 16.3272C83.6193 17.7024 82.3868 21.7696 82.2763 22.2253C82.2083 22.5095 82.0808 23.0863 81.9872 23.5127C81.5792 25.3854 81.286 26.4764 80.8014 27.9436C80.3849 29.1892 79.9599 30.6523 79.8154 31.3336C79.7134 31.8101 79.6241 32.4204 79.6539 32.4455C79.6666 32.4581 79.7261 32.4706 79.7814 32.4748L79.8876 32.4831L79.8281 32.4037C79.7899 32.3535 79.7686 32.2783 79.7729 32.2114C79.7856 32.0108 79.9046 31.9397 80.2829 31.923C80.4274 31.9146 80.5592 31.9021 80.5719 31.8896C80.6102 31.8519 80.8524 30.8654 81.0734 29.8539C81.1882 29.3355 81.3625 28.5873 81.4687 28.1944C81.575 27.8015 81.7535 27.0699 81.8725 26.5683C82.2083 25.1429 82.3698 24.5703 82.8841 22.8773C83.1518 22.0079 83.5343 20.7037 83.7384 19.9806C83.9424 19.2532 84.2781 18.1288 84.4821 17.4767C84.9539 15.9802 85.1749 15.2236 85.413 14.2664C85.6297 13.3886 85.8422 12.6905 86.0292 12.2349C86.127 11.9925 86.1652 11.8545 86.178 11.6664C86.1865 11.5285 86.2205 11.2024 86.2503 10.9391C86.28 10.6757 86.2928 10.4667 86.28 10.4709C86.2673 10.4751 86.1397 10.588 85.9995 10.7217L85.7445 10.9642L85.719 11.123ZM91.7331 4.89471C91.7161 4.93233 91.5758 5.19985 91.4228 5.48828C91.019 6.24487 90.8618 6.62943 90.5005 7.74551C90.2242 8.59824 89.7567 9.96512 89.4889 10.6925C89.1532 11.6079 88.8897 12.377 88.6261 13.2005C88.2224 14.4545 86.603 19.7381 86.0632 21.5564C85.5065 23.4291 85.3705 23.8513 84.9539 25.0008C84.5459 26.1169 84.2781 27.0198 84.0699 27.9728C83.8574 28.951 83.7511 29.3272 83.6448 29.4693C83.6023 29.5278 83.5726 29.5822 83.5768 29.5989C83.5938 29.6532 85.4597 29.9835 86.2715 30.0712C86.8623 30.1381 87.3596 30.159 88.6261 30.1841C90.7385 30.2259 92.4939 30.414 93.616 30.7191C93.786 30.7651 93.9305 30.8027 93.939 30.8027C93.9602 30.8027 94.16 30.1548 94.1515 30.1214C94.1387 30.0754 92.5109 29.9208 91.2656 29.8413C90.3773 29.787 89.8375 29.7243 88.8982 29.5654C88.0651 29.4275 87.4956 29.3564 86.9728 29.323C86.0207 29.2645 85.583 29.1224 85.3917 28.8089C85.2727 28.6124 85.2769 28.3825 85.4045 28.2487C85.4385 28.2153 85.481 28.1359 85.498 28.0732C85.515 28.0105 85.6212 27.7346 85.7275 27.4545C85.9825 26.8066 86.4585 25.2265 86.7008 24.24C86.8028 23.8179 86.9686 23.078 87.0706 22.5931C87.4616 20.687 87.8739 19.1445 88.5326 17.113C88.8217 16.231 89.7525 12.9706 89.9352 12.214C89.9607 12.1011 90.237 11.1815 90.543 10.1658C90.849 9.15001 91.1465 8.1259 91.1975 7.88763C91.3633 7.14358 91.5333 6.69213 91.8946 6.03586C92.0136 5.8185 92.0816 5.72654 92.2729 5.5259C92.4811 5.30435 92.5194 5.27927 92.6341 5.24165C92.7701 5.19985 92.8722 5.22075 92.9572 5.29599C93.0209 5.35451 93.0252 5.61368 92.9657 5.82686C92.9402 5.91464 92.9274 5.99406 92.9359 6.0066C92.9444 6.01496 93.2674 6.07766 93.6499 6.14037C94.0325 6.20307 94.619 6.30757 94.9548 6.36609L95.5626 6.47477L95.6433 6.39117C95.7496 6.28249 95.9026 6.22815 96.0471 6.25323C96.1534 6.26995 96.1789 6.28667 96.2936 6.41207L96.4211 6.55419L97.0799 6.59181C97.981 6.64197 98.474 6.64615 99.341 6.59599C100.149 6.55001 100.735 6.54165 101.543 6.55001C101.827 6.55419 102.104 6.55837 102.15 6.55837C102.206 6.55837 102.248 6.54165 102.257 6.51239C102.274 6.47477 102.24 6.46641 102.07 6.45387C101.802 6.43297 101.577 6.35773 101.181 6.15709C100.518 5.8185 100.416 5.8185 99.4048 6.11947C99.069 6.21979 98.7162 6.25741 98.423 6.22815C98.2912 6.21561 97.9427 6.14873 97.6494 6.08603C97.0332 5.95226 96.7696 5.92718 95.8983 5.92718C94.9463 5.92718 94.5638 5.83104 93.837 5.40885C93.1314 4.99921 92.9784 4.94069 92.4471 4.87799C92.2601 4.85709 92.0348 4.82365 91.9498 4.80275C91.8011 4.77348 91.7841 4.78184 91.7331 4.89471ZM92.5746 6.95548C92.5151 7.13104 92.3834 7.48217 92.2814 7.73297C92.0816 8.23458 92.0646 8.28474 91.6353 9.77284C91.4738 10.3288 91.189 11.3027 91.0063 11.9423C90.8193 12.5777 90.5643 13.5056 90.4368 13.9947C89.9012 16.0764 89.7057 16.7452 89.2892 17.9407C88.9534 18.9146 88.6984 19.7507 88.4391 20.7497C88.3286 21.1719 88.1671 21.7905 88.0779 22.1166C87.9886 22.4468 87.8356 23.0278 87.7378 23.4082C87.4191 24.6455 87.2576 25.2265 87.0961 25.7198C86.773 26.7021 86.637 27.0323 86.2588 27.7638C86.076 28.115 86.025 28.232 86.0377 28.2989C86.0462 28.3658 86.0377 28.3908 85.9697 28.441C85.872 28.5121 85.8847 28.5288 86.0972 28.5915C86.3055 28.6542 86.484 28.6751 87.011 28.7127C87.6571 28.7545 88.1119 28.813 89.2169 28.9928C90.2072 29.1516 90.6833 29.2143 91.6906 29.3146C91.9796 29.3439 92.6639 29.44 93.2164 29.5278C93.7647 29.6156 94.2237 29.6825 94.2322 29.6699C94.2407 29.6616 94.2705 29.3941 94.296 29.0806C94.3215 28.7671 94.3555 28.4201 94.3682 28.3198C94.398 28.0857 94.5808 27.2204 94.7253 26.6603C94.8783 26.0542 95.8133 22.9442 96.1491 21.9368C96.4084 21.1468 96.9056 19.8217 96.9991 19.6545C97.0289 19.6002 97.0204 19.5375 96.9481 19.3452C96.8971 19.2156 96.8206 18.9439 96.7739 18.7474L96.6889 18.388L96.4891 18.2249C96.2979 18.0661 96.2851 18.0494 96.2086 17.8654C96.0981 17.5937 96.0938 17.2134 96.2001 16.5947C96.3956 15.4577 96.7739 14.5548 97.2032 14.2162C97.2967 14.141 97.3094 14.1201 97.3094 14.0281C97.3094 13.9027 97.3689 13.7355 97.4412 13.6603C97.5304 13.5683 97.7217 13.5098 97.9002 13.5182C97.9937 13.5224 98.1 13.514 98.1382 13.4931C98.6567 13.2381 98.899 13.1629 99.2475 13.142C99.5153 13.1253 99.7108 13.1587 99.8553 13.2548L99.9573 13.3175L100.127 12.54C100.404 11.286 100.467 11.0896 100.846 10.241C101.147 9.56384 101.309 9.16255 101.487 8.61914C101.572 8.35998 101.704 7.99631 101.776 7.80403C101.849 7.61175 101.9 7.45291 101.891 7.44873C101.883 7.44455 101.521 7.45709 101.096 7.47381L100.323 7.50725L100.361 7.65355C100.442 7.95033 100.293 8.63586 100.034 9.20017C99.8851 9.52622 99.6598 9.77702 99.4685 9.83972C99.222 9.92332 98.9883 9.87316 98.8055 9.70178C98.6015 9.51368 98.5547 9.25869 98.644 8.86577C98.712 8.57734 98.9373 8.01303 99.0988 7.72043C99.1668 7.60339 99.2178 7.49889 99.2178 7.49471C99.2178 7.48635 98.9883 7.46545 98.712 7.44455C98.4315 7.42365 98.151 7.40275 98.083 7.39857L97.9597 7.38602L97.8535 7.72461L97.9682 7.67863C98.202 7.58249 98.4272 7.68699 98.4825 7.92107C98.5122 8.04648 98.4357 8.3349 98.3082 8.57316C98.1807 8.80725 97.6664 9.37574 97.4837 9.48024C97.1989 9.64744 96.9311 9.63072 96.7271 9.44262C96.4721 9.20435 96.4976 8.83651 96.8164 8.22622C96.9311 8.00467 97.1649 7.65773 97.2839 7.53233C97.4412 7.36512 97.4284 7.35676 96.9269 7.31914C96.4849 7.2857 96.4679 7.2857 96.4551 7.35676C96.3531 8.1468 96.0896 9.02043 95.8686 9.28795C95.7411 9.44262 95.6136 9.49278 95.4691 9.43844C95.2098 9.3423 95.1843 9.10403 95.3586 8.5021C95.5328 7.90017 95.6688 7.37348 95.6476 7.37348C95.6391 7.37348 95.5881 7.43619 95.5413 7.51561C95.4095 7.72879 95.1673 7.97959 95.0483 8.01721C94.84 8.0841 94.6828 7.99631 94.6743 7.80403C94.67 7.71207 94.687 7.67027 94.755 7.60339C94.8018 7.55741 94.9038 7.42783 94.9845 7.31496C95.1078 7.14776 95.1248 7.11014 95.0908 7.09342C95.0653 7.08506 94.8613 7.03908 94.636 6.9931C94.4107 6.94712 93.9432 6.85516 93.6032 6.7841C93.2632 6.71303 92.9189 6.64615 92.8424 6.62943C92.7659 6.61271 92.6979 6.60853 92.6936 6.61271C92.6894 6.63361 92.6384 6.77992 92.5746 6.95548ZM103.647 5.33361C103.8 5.6513 103.812 5.81432 103.689 5.98152C103.634 6.05676 103.583 6.09021 103.4 6.15709C103.281 6.20307 103.162 6.25741 103.145 6.27831C103.124 6.29921 103.073 6.39535 103.035 6.49149C102.975 6.63361 102.967 6.68795 102.996 6.7841C103.06 6.97638 102.958 7.19792 102.767 7.28988C102.694 7.32332 102.486 7.81657 102.002 9.09985C101.785 9.67252 101.687 9.91078 101.3 10.797C101.084 11.2902 100.986 11.6246 100.79 12.515C100.48 13.9153 100.442 14.0323 100.123 14.6175C99.8213 15.1693 99.7533 15.3323 99.3495 16.4693C99.069 17.2593 98.9798 17.4558 98.6567 17.9908C98.4357 18.3587 98.1977 18.8436 97.9852 19.387C97.9087 19.5751 97.7217 20.0182 97.5602 20.3777C96.9226 21.8156 96.8929 21.9117 95.8006 25.841C95.7241 26.1169 95.6008 26.6478 95.5286 27.024C95.4563 27.4002 95.3585 27.8767 95.3075 28.0815C95.2013 28.5288 95.1503 28.8465 95.095 29.4233L95.0525 29.8497L95.248 29.8957C95.4903 29.9542 95.6008 30.0211 95.5711 30.088C95.5456 30.1465 95.4733 30.1632 95.2013 30.1799L94.993 30.1925L94.8953 30.6021C94.7678 31.1413 94.7295 31.3587 94.6743 31.8185C94.6233 32.2449 94.534 32.5166 94.3597 32.7716C94.296 32.8677 94.2407 32.9555 94.2407 32.9722C94.2407 32.9889 94.2832 33.0433 94.3385 33.0976C94.432 33.1896 94.4532 33.1979 94.738 33.2314C95.1205 33.2732 95.2735 33.3275 95.3713 33.4445C95.4648 33.5574 95.4648 33.7246 95.3756 33.8584L95.3075 33.9545L95.5116 34.1175C95.8558 34.3892 96.4509 34.849 96.5189 34.8908C96.5571 34.9117 96.7186 34.941 96.8844 34.9577C97.2372 34.987 97.5007 35.0664 97.7089 35.2044C97.9342 35.3507 97.9937 35.451 97.9555 35.5931C97.9385 35.6558 97.8832 35.7519 97.8364 35.7979L97.7514 35.8857L98.3677 36.6716L98.5122 36.6757C98.593 36.6757 98.814 36.6966 99.0053 36.7175C99.358 36.7593 100.302 36.751 100.433 36.7092C100.501 36.6883 100.501 36.6841 100.433 36.6423C100.314 36.5712 99.7661 36.1574 99.3708 35.8397C99.1583 35.6683 98.542 35.1208 97.947 34.5732C96.8291 33.5407 96.6294 33.3317 96.3276 32.8635C96.2596 32.759 96.1959 32.6712 96.1874 32.6712C96.1789 32.6712 96.1363 32.7298 96.0896 32.805C95.9876 32.968 95.8941 33.0307 95.8006 32.9973C95.7071 32.968 95.7028 32.9095 95.7921 32.922C95.8558 32.9304 95.8558 32.922 95.8048 32.8092C95.7666 32.7214 95.7581 32.6211 95.7708 32.4581C95.7836 32.3326 95.8006 31.9481 95.8048 31.6053C95.8218 30.7484 95.8431 30.5227 95.9408 30.205C95.9876 30.0545 96.0641 29.7368 96.1151 29.4986C96.3106 28.5664 96.3786 28.3699 96.6549 27.8767C96.8674 27.5047 96.8844 27.4378 96.9822 26.7773C97.0672 26.213 97.1777 25.7574 97.2924 25.515C97.3307 25.4397 97.4327 25.2683 97.5219 25.1304C97.7387 24.8044 97.828 24.5745 98.0447 23.7593C98.3295 22.7018 98.3975 22.5095 98.8778 21.4227C98.9415 21.2806 99.1668 20.5867 99.3793 19.8802C99.5918 19.1738 99.8468 18.3921 99.9446 18.1497C100.153 17.6272 100.225 17.4056 100.391 16.7285C100.642 15.7169 100.863 15.1609 101.317 14.4085C101.615 13.9153 101.798 13.5516 102.082 12.8953C102.35 12.2725 102.754 11.3487 102.941 10.9307C103.018 10.7593 103.154 10.404 103.243 10.1407C103.336 9.87734 103.494 9.44262 103.6 9.17509C103.757 8.77381 103.791 8.66094 103.787 8.51464C103.783 8.28056 103.936 7.79985 104.229 7.13104C104.361 6.83426 104.488 6.52075 104.518 6.44133C104.586 6.22815 104.531 5.64712 104.407 5.30435C104.356 5.15805 104.305 5.04101 104.301 5.04519C104.293 5.04519 104.216 5.07445 104.123 5.11207C104.033 5.14551 103.897 5.17477 103.825 5.17059C103.676 5.15387 103.596 5.22493 103.647 5.33361ZM104.888 5.03683C104.905 5.06609 104.947 5.10371 104.977 5.12043C105.007 5.13715 105.096 5.24583 105.172 5.36287C105.249 5.47992 105.317 5.57188 105.321 5.57188C105.33 5.57188 105.376 5.55516 105.423 5.53844C105.474 5.52172 105.759 5.4632 106.061 5.40885C107.085 5.22911 107.608 5.09953 108.241 4.86963C108.964 4.61046 109.074 4.58538 109.699 4.53104C110.472 4.46416 110.574 4.44744 111.106 4.33458C111.76 4.19246 112.134 4.15065 112.466 4.1841C113.057 4.23844 114.697 4.5394 115.56 4.7484C115.768 4.79856 116.096 4.87799 116.287 4.91979C117.103 5.10371 117.354 5.20403 118.416 5.78924C118.79 5.99406 119.321 6.27831 119.598 6.42043C120.282 6.77156 120.631 6.98474 121.085 7.34004C121.298 7.50307 121.583 7.71625 121.719 7.81239C121.855 7.90853 122.025 8.02976 122.097 8.07992C122.169 8.13426 122.233 8.1677 122.237 8.15934C122.288 8.01303 122.399 7.49053 122.382 7.46127C122.373 7.44037 122.267 7.37348 122.148 7.31078C122.029 7.24808 121.85 7.15194 121.753 7.10178C121.583 7.00982 121.187 6.7214 120.286 6.02332C119.849 5.68474 119.47 5.42139 118.888 5.05355C118.68 4.92397 118.416 4.7484 118.301 4.6648C118.114 4.53104 118.042 4.4976 117.566 4.3513C117.277 4.25934 116.882 4.12139 116.691 4.04197C116.04 3.77445 115.807 3.72429 114.582 3.59889C113.792 3.51947 113.737 3.51529 113.384 3.56127C113.235 3.58217 112.959 3.60307 112.772 3.61561C112.585 3.62815 112.232 3.67831 111.986 3.72847C111.739 3.77863 111.408 3.84133 111.25 3.86641C111.093 3.89149 110.829 3.93747 110.668 3.96673C110.502 3.99599 110.188 4.02943 109.967 4.04197C109.452 4.06705 109.333 4.09631 108.887 4.28442C108.437 4.47252 108.186 4.54776 107.71 4.623C107.506 4.65644 107.128 4.73168 106.868 4.79438C106.116 4.96995 105.538 5.02429 105.036 4.97413C104.943 4.96577 104.858 4.96159 104.854 4.96995C104.858 4.97413 104.871 5.00339 104.888 5.03683ZM105.364 6.49567C105.359 6.54583 105.321 6.75484 105.27 6.96384C105.223 7.17284 105.126 7.59085 105.058 7.89599C104.9 8.59406 104.803 8.81143 104.573 8.94519C104.488 8.99535 104.463 9.04133 104.271 9.52622C103.936 10.3873 103.655 11.0269 103.307 11.7417C103.128 12.1095 102.881 12.6445 102.767 12.9246C102.384 13.8359 102.193 14.2372 101.946 14.651C101.517 15.3699 101.368 15.7629 101.054 17.0253C100.926 17.531 100.82 17.8571 100.608 18.3796C100.518 18.6011 100.289 19.2825 100.098 19.897C99.7151 21.1259 99.5918 21.4561 99.324 21.9912C99.1413 22.3507 98.9033 22.9359 98.9203 22.9902C98.9245 23.0069 98.9585 22.9986 98.9968 22.9735C99.0818 22.9191 99.6088 22.6892 99.7916 22.6265C100.068 22.5346 100.722 22.2127 100.948 22.0581C101.075 21.9703 101.275 21.8407 101.39 21.7696L101.602 21.6359L101.492 21.5063C101.305 21.2889 101.016 20.8249 100.931 20.595C100.829 20.3233 100.816 20.0642 100.897 19.7214C100.994 19.3034 101.075 19.1613 101.271 19.0735L101.279 19.0693C101.347 19.04 101.377 19.0275 101.377 19.015C101.377 19.0024 101.356 18.9899 101.322 18.969L101.317 18.9648C101.207 18.8979 101.079 18.668 101.071 18.5092C101.058 18.3378 101.152 18.2249 101.339 18.1831L101.462 18.1581L101.492 17.9449C101.543 17.6063 101.687 17.1757 101.925 16.6574C102.048 16.3899 102.24 15.9092 102.359 15.5831C102.656 14.7429 102.745 14.5339 103.081 13.8609C103.464 13.096 103.536 12.9748 103.727 12.7741C103.948 12.54 104.157 12.4314 104.539 12.3519C104.709 12.3143 104.871 12.2725 104.9 12.2558C104.934 12.2349 104.998 12.0719 105.1 11.7333C105.266 11.1815 105.364 10.9809 105.593 10.7384C105.814 10.5085 105.916 10.4458 106.418 10.2619C107.14 9.99439 107.213 9.91914 107.451 9.19599C107.531 8.95773 107.629 8.69439 107.667 8.61078C107.893 8.13008 108.186 7.95451 108.998 7.80821C109.656 7.69117 109.788 7.62429 110.341 7.1394C110.532 6.9722 110.91 6.65869 111.182 6.44551C111.454 6.23233 111.816 5.9439 111.99 5.80596C112.462 5.43393 112.721 5.30435 113.239 5.17895C113.363 5.14969 113.465 5.11625 113.465 5.10789C113.465 5.07027 112.236 4.94905 112.079 4.96995C111.986 4.98249 111.726 5.03683 111.497 5.09535C110.944 5.23329 110.664 5.27927 110.073 5.31271C109.376 5.35451 109.206 5.38795 108.475 5.63876C107.514 5.96898 106.651 6.16963 105.895 6.23651C105.636 6.26159 105.453 6.30757 105.402 6.36609C105.381 6.39535 105.368 6.44551 105.364 6.49567ZM83.1008 31.1999C83.0201 31.5761 82.9563 31.8937 82.9648 31.9063C82.9861 31.9481 83.6236 31.969 84.0614 31.9439C84.6777 31.9105 85.1027 31.9397 85.872 32.0693C86.246 32.132 86.688 32.1947 86.858 32.2072C87.3213 32.2449 88.0609 32.2323 89.0597 32.1822C89.5527 32.1571 90.254 32.1195 90.6153 32.1027C91.4356 32.0651 91.8563 32.0233 92.5746 31.9021C92.8849 31.8519 93.2292 31.8101 93.3312 31.8143C93.7009 31.8227 93.9007 31.969 93.9007 32.2323V32.3703L93.9517 32.2867C94.0325 32.1613 94.0325 32.0693 93.9687 31.6513L93.9092 31.2667L93.5692 31.2542C93.3822 31.2458 92.8679 31.2166 92.4301 31.179C91.4696 31.1037 91.2486 31.0953 90.016 31.0786C88.0354 31.0535 87.5338 31.0326 86.7858 30.9532C86.3735 30.9072 85.5447 30.7609 84.9199 30.6272C84.4354 30.5227 84.3759 30.5143 84.3886 30.5687C84.4056 30.6523 84.3546 30.6481 84.2484 30.5519C84.1974 30.5101 84.0954 30.4516 84.0189 30.4265C83.8871 30.3806 83.8744 30.3847 83.8064 30.4558C83.6831 30.5854 83.4238 30.6105 83.3091 30.506C83.2921 30.4892 83.2708 30.4851 83.2623 30.4934C83.2538 30.506 83.1816 30.8236 83.1008 31.1999ZM97.8577 15.3407C97.7514 15.4953 97.6239 15.8005 97.5304 16.1265C97.3732 16.6574 97.2457 17.251 97.2457 17.4558C97.2457 17.6439 97.3987 18.6847 97.4284 18.6847C97.4369 18.6847 97.5262 18.5175 97.6282 18.3169C97.7302 18.1163 97.8917 17.8278 97.9895 17.6773C98.474 16.9249 98.525 16.8204 98.933 15.7294C99.188 15.0439 99.4558 14.4253 99.528 14.35C99.545 14.3333 99.5706 14.2873 99.5876 14.2455L99.6173 14.1703H99.4813C99.2858 14.1744 98.916 14.3082 98.7375 14.4378C98.6015 14.5423 97.9427 15.2153 97.8577 15.3407ZM82.6333 33.1854C82.6035 33.2982 82.5823 33.3986 82.5865 33.4027C82.5908 33.4069 82.6503 33.3944 82.7183 33.3777C82.9988 33.2941 83.8106 33.2105 84.5162 33.1937C84.9327 33.1854 85.2642 33.1687 85.2599 33.1645C85.2429 33.1478 84.9157 33.0851 84.7159 33.06C84.6097 33.0474 84.3461 33.0349 84.1294 33.0391C83.6534 33.0433 83.3516 33.0224 82.9946 32.9722C82.8458 32.9513 82.714 32.9429 82.7055 32.9597C82.697 32.968 82.663 33.0725 82.6333 33.1854ZM108.466 9.5304C108.292 10.124 108.19 10.3246 107.935 10.588C107.672 10.8638 107.366 11.0269 106.834 11.1815C106.702 11.2191 106.545 11.2818 106.477 11.3236C106.367 11.3905 106.35 11.4114 106.277 11.5744C106.235 11.6706 106.158 11.9214 106.107 12.1304C105.997 12.5902 105.925 12.7699 105.772 12.9581C105.572 13.2005 105.308 13.3259 104.854 13.3928C104.569 13.4346 104.437 13.4889 104.356 13.6101C104.169 13.8818 103.617 14.9854 103.328 15.6667C103.154 16.0806 102.933 16.5487 102.843 16.7076C102.329 17.5854 102.269 17.715 102.172 18.133C102.095 18.4632 102.074 18.5426 102.104 18.5719C102.112 18.5802 102.129 18.5844 102.146 18.5886C102.235 18.6137 102.223 18.6638 102.116 18.6889C102.044 18.7056 102.023 18.7265 101.951 18.8478C101.895 18.9355 101.798 19.0442 101.683 19.1487L101.5 19.3117L101.572 19.7172C101.611 19.9429 101.67 20.1812 101.7 20.2481C101.73 20.315 101.849 20.4947 101.963 20.641C102.201 20.9462 102.218 20.9545 102.384 20.8458C102.707 20.6326 103.438 19.6629 104.178 18.459C104.276 18.3002 104.505 17.9825 104.684 17.7609L104.701 17.74C104.841 17.5645 104.922 17.4642 104.985 17.3597C105.066 17.2301 105.13 17.088 105.266 16.7661L105.279 16.7368C105.406 16.44 105.614 16.1349 105.78 16.0053C105.84 15.9552 105.993 15.8465 106.116 15.7629C106.388 15.5748 106.422 15.5288 106.622 15.0648C107.017 14.1494 107.174 13.9236 107.68 13.5558C108.024 13.305 108.258 13.0667 108.364 12.8577C108.407 12.7741 108.53 12.4857 108.632 12.2224C108.738 11.959 108.917 11.5619 109.032 11.3362C109.146 11.1146 109.287 10.8179 109.346 10.6757C109.469 10.3748 109.678 10.032 109.839 9.86062C109.903 9.79374 110.06 9.65162 110.188 9.54712C110.396 9.37156 110.443 9.31721 110.672 8.99953C111.225 8.22204 111.607 7.83329 112.143 7.50307L112.334 7.38602C112.44 7.31914 112.542 7.25644 112.602 7.21882C112.853 7.06416 113.176 6.79246 113.299 6.62943C113.401 6.49985 113.401 6.48731 113.341 6.48731C113.167 6.48313 113.018 6.57509 112.593 6.93458C112.368 7.12686 111.977 7.43619 111.731 7.61593C111.484 7.79567 111.204 8.00885 111.101 8.08828C110.409 8.63586 110.018 8.80725 109.278 8.87831C108.908 8.91175 108.675 8.95355 108.645 8.98699C108.632 8.99535 108.551 9.24197 108.466 9.5304ZM86.0505 34.3516C86.1015 34.4018 86.161 34.4645 86.178 34.4937C86.2035 34.5355 86.2375 34.5397 86.348 34.5146C86.4245 34.4979 86.6753 34.4937 86.909 34.5063C87.1428 34.5188 87.5338 34.5355 87.7761 34.5397C88.0184 34.5439 88.4859 34.5815 88.8174 34.6191C89.5995 34.7069 89.863 34.7069 90.5728 34.6191C91.2868 34.5314 91.8181 34.523 92.6554 34.5857C93.0082 34.6108 93.5267 34.6484 93.8072 34.6693C94.2365 34.6986 94.9845 34.7863 95.1588 34.8281C95.2523 34.849 95.2013 34.7947 94.9378 34.5857C94.7933 34.4687 94.5893 34.2973 94.4873 34.2053L94.3002 34.0339L92.0773 34.0841C90.8533 34.1134 88.9747 34.1635 87.8994 34.1928L85.9442 34.2513L86.0505 34.3516ZM114.74 5.41303C114.714 5.47156 114.752 5.47992 114.973 5.44648C115.092 5.42976 115.182 5.40885 115.177 5.40467C115.173 5.40049 115.084 5.37959 114.982 5.35869C114.808 5.32525 114.774 5.33361 114.74 5.41303ZM111.743 9.03297C111.701 9.08731 111.556 9.28377 111.425 9.4677C111.221 9.75194 111.131 9.85644 110.812 10.1658C110.574 10.3999 110.404 10.5838 110.349 10.6716C110.205 10.8889 109.788 11.9548 109.635 12.4941C109.469 13.0793 109.367 13.3384 109.202 13.606C109.044 13.8526 108.76 14.1285 108.386 14.3918C107.999 14.6635 107.876 14.8474 107.642 15.5163C107.417 16.1558 107.259 16.3815 106.809 16.6992C106.498 16.9166 106.481 16.9375 106.35 17.3847C106.205 17.8696 106.137 17.9825 105.695 18.5384C105.347 18.9773 105.308 19.0317 105.359 19.0526C105.572 19.1362 105.661 19.2825 105.644 19.4831L105.636 19.5626C105.627 19.6044 105.606 19.6712 105.606 19.6712C105.606 19.6712 105.597 19.6838 105.525 19.7548C105.466 19.8175 105.389 20.106 105.262 20.7873C105.113 21.5648 105.109 21.6818 105.245 22.0873C105.317 22.3005 105.334 22.4426 105.351 22.8982C105.364 23.2034 105.381 23.6172 105.393 23.8179C105.41 24.1063 105.398 24.2568 105.338 24.5494C105.296 24.75 105.228 25.0761 105.189 25.2725C105.049 25.9539 104.926 26.2716 104.441 27.1786C104.331 27.3876 104.144 27.7764 104.029 28.0397C103.914 28.3031 103.766 28.6333 103.689 28.7754C103.617 28.9175 103.557 29.0388 103.557 29.0471C103.557 29.0555 103.685 29.0638 103.846 29.068C104.722 29.0889 105.33 29.0973 105.823 29.0931C106.562 29.0889 106.966 29.1265 107.82 29.2728C108.216 29.3439 108.76 29.4275 109.023 29.4651C109.712 29.5613 110.001 29.6198 110.472 29.7619C110.702 29.8288 111.144 29.9584 111.454 30.0503C111.765 30.1381 112.143 30.2677 112.296 30.3388C112.551 30.4558 112.589 30.4851 112.997 30.832C113.235 31.0326 113.431 31.1999 113.435 31.204C113.439 31.2082 113.46 31.0912 113.482 30.949C113.609 30.0754 113.817 29.4108 114.506 27.6802C114.735 27.1034 114.922 26.6269 114.922 26.6185C114.922 26.6101 114.85 26.6018 114.765 26.5976C114.527 26.5851 114.191 26.4806 113.673 26.2548C113.414 26.142 113.001 25.9706 112.751 25.8703C112.296 25.6905 111.599 25.3101 111.14 24.9925C110.872 24.8085 109.644 23.6339 109.359 23.287C109.074 22.9442 108.522 22.2085 108.267 21.8323C107.897 21.2847 107.731 20.9503 107.48 20.2355C107.421 20.06 107.361 19.9179 107.349 19.9179C107.327 19.9179 107.183 20.549 107.23 20.942C107.315 21.7027 107.497 22.3799 107.752 22.8606C107.88 23.1072 108.152 23.5253 108.441 23.9182C109.04 24.7417 110.574 26.5224 111.118 27.024L111.335 27.2246L111.416 27.187C111.539 27.1285 111.739 27.1703 112.27 27.3626C113.235 27.7137 114.242 27.6802 114.548 27.4127C114.642 27.3291 114.599 27.4336 114.54 27.5716C114.497 27.6761 114.442 27.7973 114.429 27.8851C114.429 27.8851 114.34 28.115 114.145 28.115C114.06 28.115 113.703 28.1609 113.401 28.1986C113.159 28.2278 112.955 28.2571 112.95 28.2529C112.938 28.2445 112.916 28.2613 112.895 28.2947C112.827 28.4117 112.147 28.3281 111.667 28.14C110.485 27.6802 108.908 26.2841 107.599 24.5368C106.894 23.5963 106.566 22.8899 106.401 21.9285C106.256 21.0883 106.375 20.0015 106.452 19.5793C106.537 19.1153 106.732 18.831 107.021 18.7433C107.255 18.6722 107.48 18.7809 107.544 18.9982C107.57 19.0944 107.582 19.1027 107.663 19.1278C107.833 19.178 107.888 19.2616 108.211 20.0056C108.296 20.2063 108.59 20.6828 108.59 20.6828C108.556 20.7204 108.675 20.9044 109.108 21.5063C109.814 22.4802 109.873 22.5513 110.795 23.404L111.612 24.1648L112.211 24.4992C112.853 24.8545 112.916 24.888 113.554 25.1388C113.779 25.2265 114.162 25.3854 114.404 25.4899C114.884 25.6989 115.084 25.7658 115.203 25.7574C115.279 25.7532 115.284 25.7449 115.42 25.4648C115.688 24.9047 115.9 24.5577 116.482 23.7384C116.444 23.7468 116.402 23.7593 116.355 23.7677C116.185 23.822 115.309 24.031 115.131 24.0394C114.867 24.0519 114.765 24.0394 114.446 23.9433C114.242 23.8806 113.843 23.7384 113.558 23.6214C113.074 23.4208 113.031 23.3999 112.751 23.1741C112.589 23.0445 112.389 22.8982 112.309 22.8523C112.211 22.7979 112.066 22.6683 111.884 22.4844C111.731 22.3298 111.391 21.9828 111.127 21.7153C110.787 21.3725 110.6 21.1593 110.481 20.988C110.392 20.8542 110.192 20.5783 110.047 20.3693C109.716 19.9053 109.631 19.7507 109.469 19.3076C109.21 18.6011 108.968 17.2217 109.057 16.9417C109.1 16.7995 109.214 16.7201 109.355 16.7201C109.448 16.7201 109.478 16.741 109.559 16.8288C109.669 16.9584 109.941 17.5185 110.2 18.1497C110.617 19.1654 110.659 19.249 110.991 19.6253C111.106 19.759 111.297 19.9931 111.412 20.1478C111.701 20.5323 112.874 21.7027 113.205 21.9326C113.435 22.0915 113.558 22.1793 113.694 22.2462C113.856 22.3256 114.034 22.3716 114.421 22.4719L115.105 22.6516L115.314 22.5931C115.428 22.5597 115.739 22.4761 116.002 22.4092C116.266 22.3423 116.533 22.2587 116.589 22.2294C116.746 22.0079 117.702 20.8584 117.957 20.5574L117.961 20.5532C117.987 20.524 118.004 20.4989 118.012 20.4905C118.131 20.3484 118.165 20.3108 118.199 20.3108C118.284 20.0725 118.378 19.8175 118.463 19.5876C118.952 18.2667 119.168 17.5352 119.292 16.8204C119.389 16.2645 119.423 16.0053 119.585 14.6593C119.717 13.5474 119.925 12.9999 120.448 12.3519C120.584 12.1847 120.605 12.1429 120.609 12.0426C120.614 11.9799 120.631 11.8294 120.652 11.7124C120.669 11.6079 120.686 11.4031 120.694 11.2317C120.673 11.1314 120.643 11.031 120.614 10.9474L120.295 10.3957L120.184 10.2661C119.959 9.99439 119.309 8.86995 119.232 8.66094C119.228 8.2513 119.054 8.03394 118.884 7.82075C118.701 7.59085 118.522 7.3693 118.556 6.91368C118.539 6.90532 118.535 6.88024 118.539 6.85098C118.369 6.74229 118.174 6.61689 118.008 6.51657C117.745 6.35355 117.379 6.12783 117.196 6.01496C116.946 5.85612 116.81 5.78924 116.627 5.7349C116.287 5.6304 116.257 5.6304 116.24 5.70982C116.219 5.81014 116.096 5.8812 115.798 5.9648C115.335 6.09439 115.058 6.20725 114.931 6.31175C114.863 6.37027 114.693 6.57927 114.523 6.805C114.293 7.1185 114.17 7.26062 113.928 7.49889C113.579 7.83747 113.367 7.98377 112.819 8.23876C112.64 8.32236 112.428 8.43522 112.347 8.48538C112.177 8.59406 111.871 8.87413 111.743 9.03297ZM121.064 9.27123C121.081 9.35902 121.081 9.43844 121.068 9.51368C120.835 9.25033 120.631 8.96191 120.558 8.78217C120.541 8.73619 120.414 8.4185 120.269 8.04229C120.333 8.10082 120.401 8.15934 120.469 8.22204C120.762 8.48956 121.026 8.71529 121.051 8.72365C121.09 8.73619 121.094 8.78217 121.064 8.92011C121.047 9.01625 121.047 9.17509 121.064 9.27123ZM98.593 24.1272C98.4272 24.7918 98.3252 25.0259 97.947 25.6153C97.7854 25.8661 97.7089 26.1336 97.5899 26.8609C97.4752 27.559 97.4284 27.7137 97.2414 28.0105C97.1649 28.1359 97.0629 28.3156 97.0162 28.4117C96.9226 28.604 96.7611 29.1683 96.7824 29.2101C96.7909 29.2227 96.9311 29.2185 97.0927 29.1934C97.4369 29.1433 98.134 29.1307 99.6556 29.1391C100.255 29.1433 100.871 29.1433 101.024 29.1349L101.309 29.1265L101.186 29.0137C100.897 28.742 100.892 28.2487 101.181 27.0365C101.462 25.8494 101.462 25.5066 101.169 24.8963C101.02 24.5786 100.824 24.3236 100.535 24.0561L100.302 23.8388L100.064 23.8931C99.6046 24.0018 98.9415 23.9558 98.78 23.8053C98.7418 23.7719 98.7077 23.751 98.6992 23.7593C98.6907 23.7635 98.644 23.9307 98.593 24.1272ZM92.2601 33.1352C92.5406 33.1352 92.9232 33.1352 93.1102 33.1352C93.2972 33.1352 93.4374 33.1227 93.4204 33.106C93.4034 33.0892 93.3567 32.9931 93.3184 32.8928C93.2802 32.7925 93.2419 32.7089 93.2377 32.7047C93.2334 32.7005 93.0337 32.7632 92.7956 32.8384C92.5534 32.9137 92.2261 33.0056 92.0689 33.0433C91.9073 33.0809 91.7713 33.1143 91.7628 33.1227C91.7586 33.131 91.9796 33.1352 92.2601 33.1352ZM101.53 23.5336C102.031 24.0687 102.444 24.8127 102.546 25.3896C102.626 25.8536 102.575 26.4764 102.384 27.1953C102.286 27.5674 102.01 28.441 101.925 28.6458C101.891 28.7336 101.883 28.7963 101.904 28.8423C101.934 28.905 101.929 28.9175 101.827 29.0011L101.721 29.0931L102.138 29.0806C102.367 29.0764 102.558 29.0597 102.567 29.0429C102.575 29.0304 102.605 28.9134 102.635 28.7838C102.954 27.4503 103.166 26.8024 103.515 26.1211C103.736 25.6905 103.812 25.4523 103.965 24.6831C104.076 24.1314 104.093 23.9976 104.076 23.7343C104.05 23.3539 104.042 23.1323 104.046 22.8648C104.05 22.7352 104.021 22.5722 103.974 22.4301C103.931 22.3047 103.885 22.1166 103.863 22.0163C103.846 21.9117 103.825 21.8281 103.821 21.8281C103.817 21.8281 103.71 21.9076 103.587 22.0037C103.273 22.2462 103.069 22.3548 102.575 22.5429C102.257 22.6642 102.108 22.7352 101.993 22.8272C101.623 23.1156 101.39 23.2912 101.356 23.3079C101.339 23.3162 101.385 23.379 101.53 23.5336ZM96.5316 30.1507C96.4636 30.3806 96.4169 30.5812 96.4254 30.5937C96.4339 30.6063 96.5316 30.6021 96.6421 30.5812C96.9184 30.531 98.9075 30.4433 99.4175 30.46C100.259 30.4851 100.914 30.5478 102.193 30.7317C102.592 30.786 103.324 30.8738 103.825 30.924C105.797 31.1204 106.651 31.2458 108.067 31.551C109.682 31.9021 110.234 32.0568 110.863 32.3494C111.896 32.8259 112.517 33.3024 112.81 33.85C112.853 33.9294 112.899 33.9963 112.908 33.9963C112.942 33.9963 113.146 33.5114 113.218 33.2732C113.295 33.014 113.35 32.6545 113.354 32.387L113.358 32.2031L112.164 31.0912L111.918 30.9783C111.782 30.9156 111.48 30.8111 111.242 30.7442C111.004 30.6773 110.6 30.5603 110.341 30.4809C109.775 30.3095 109.622 30.2802 108.836 30.1716C108.5 30.1256 108.063 30.0587 107.863 30.0169C106.732 29.787 106.345 29.7452 105.704 29.7786C105.228 29.8037 104.535 29.7995 103.783 29.7661C103.013 29.7326 102.486 29.7326 101.98 29.7703C101.143 29.833 99.4643 29.8162 97.896 29.7243C97.6622 29.7117 97.2839 29.7076 97.0587 29.7159L96.6464 29.7326L96.5316 30.1507ZM96.3319 31.5552C96.3149 31.7182 96.2979 31.9314 96.2979 32.0317L96.2936 32.2114L96.8419 32.6587C97.1437 32.9053 97.6452 33.3359 97.9597 33.6117C98.9628 34.4979 100.727 35.986 100.773 35.9902C100.778 35.9902 100.795 35.9526 100.807 35.9024C100.846 35.7603 101.011 35.6725 101.279 35.6474C101.356 35.6391 101.657 35.6474 101.951 35.6683C102.244 35.6851 102.831 35.6976 103.251 35.6934C103.987 35.6851 104.569 35.7269 105.215 35.8355C105.844 35.94 106.362 35.9735 107.268 35.9568C108.186 35.94 108.755 35.9609 109.35 36.0278C110.23 36.1281 111.212 36.1365 111.735 36.0529L111.93 36.0236L112.058 35.6851C112.279 35.0999 112.321 34.9368 112.313 34.6526C112.3 34.1886 112.156 33.9336 111.68 33.5323C111.386 33.2815 110.995 33.06 110.553 32.8844C110.128 32.7172 109.873 32.6545 108.713 32.4455C108.373 32.3828 107.833 32.2825 107.514 32.2198C106.507 32.0233 105.453 31.8687 103.795 31.6764C103.345 31.622 102.699 31.5384 102.354 31.4883C101.53 31.3671 101.045 31.3127 100.251 31.2626C99.3368 31.1999 99.0435 31.1957 97.6154 31.2333L96.3659 31.2626L96.3319 31.5552ZM121.986 10.8471L121.995 10.9307L121.999 10.8471C122.003 10.7719 121.999 10.7426 121.982 10.7593C121.982 10.7635 121.982 10.8053 121.986 10.8471ZM101.283 36.4417C101.296 36.45 101.313 36.45 101.326 36.4375C101.339 36.4249 101.33 36.4124 101.313 36.4082C101.296 36.404 101.279 36.404 101.271 36.4124C101.266 36.4208 101.275 36.4333 101.283 36.4417Z" fill="white"/>
</svg>
