<svg width="146" height="100" viewBox="0 0 146 100" fill="none" xmlns="http://www.w3.org/2000/svg">
<path d="M72.5036 1.86035C33.2115 1.86035 1.35107 22.1651 1.35107 47.2183C1.35107 72.2714 33.2115 94.5428 72.5036 94.5428C111.796 94.5428 143.656 72.2714 143.656 47.2183C143.656 22.1828 111.813 1.86035 72.5036 1.86035Z" fill="#00B1EA"/>
<path d="M49.355 33.2034C49.3195 33.2742 48.6261 33.9829 49.0706 34.5676C50.1729 35.9673 53.5688 36.7647 57.0002 36.0028C59.0448 35.5421 61.6761 33.4691 64.2007 31.4493C66.9565 29.27 69.6945 27.0907 72.4325 26.2225C75.3483 25.3012 77.1974 25.6909 78.4419 26.063C79.7931 26.4705 81.3754 27.3564 83.9179 29.2523C88.6827 32.8313 107.867 49.5038 111.191 52.3919C113.858 51.187 126.57 46.0666 142.696 42.523C141.291 33.9652 136.118 25.7973 128.188 19.3834C117.13 24.0077 102.728 26.7717 89.5184 20.3578C89.4472 20.3401 82.2999 16.956 75.2594 17.1332C64.7874 17.3812 60.236 21.8993 55.4356 26.6832L49.355 33.2034Z" fill="white"/>
<path d="M110.409 54.2171C110.178 54.0222 87.8649 34.5502 82.7978 30.7586C79.8642 28.5793 78.2463 28.0123 76.5395 27.7997C75.6505 27.6934 74.4237 27.8528 73.5526 28.0832C71.2057 28.721 68.1299 30.7763 65.3918 32.9379C62.5649 35.188 59.8981 37.2965 57.4268 37.8457C54.2621 38.5544 50.404 37.7217 48.6438 36.5346C47.9327 36.0562 47.4348 35.507 47.1859 34.94C46.5281 33.434 47.7371 32.2291 47.9326 32.0343L54.1021 25.39C54.8132 24.6813 55.5421 23.9726 56.2711 23.2639C54.2798 23.5296 52.4486 24.0257 50.6529 24.5218C48.4127 25.142 46.2792 25.7444 44.0924 25.7444C43.1856 25.7444 38.3319 24.9471 37.4074 24.699C31.8247 23.1753 25.5131 21.7047 18.2058 18.3029C9.44064 24.8053 3.73346 32.7784 2.04443 41.726C3.30676 42.0626 6.59599 42.8067 7.44939 43.0016C27.2732 47.3957 33.4426 51.9138 34.5627 52.8705C35.7717 51.524 37.5318 50.6735 39.4697 50.6735C41.6565 50.6735 43.6479 51.772 44.8391 53.4729C45.9769 52.587 47.5416 51.8075 49.5684 51.8075C50.4929 51.8075 51.4352 51.9846 52.3952 52.3036C54.6354 53.0654 55.791 54.5537 56.3778 55.9003C57.1245 55.5637 58.049 55.3156 59.1335 55.3156C60.2003 55.3156 61.3204 55.5637 62.4227 56.042C66.0853 57.6012 66.6542 61.1802 66.3164 63.8734C66.5831 63.8379 66.832 63.8379 67.0987 63.8379C71.4368 63.8379 74.9571 67.3461 74.9571 71.6693C74.9571 72.9981 74.6193 74.2561 74.0148 75.3723C75.1883 76.0279 78.1929 77.5339 80.842 77.1972C82.94 76.9315 83.7578 76.2228 84.0422 75.8153C84.2378 75.5318 84.4512 75.2128 84.2556 74.9825L78.6552 68.799C78.6552 68.799 77.7306 67.9308 78.0329 67.5941C78.3529 67.2575 78.9219 67.7359 79.313 68.0725C82.1577 70.4467 85.6246 74.008 85.6246 74.008C85.678 74.0435 85.9091 74.5041 87.207 74.7345C88.3093 74.9294 90.265 74.823 91.634 73.7068C91.9718 73.4233 92.3096 73.069 92.6118 72.7146C92.5941 72.7323 92.5763 72.75 92.5408 72.7678C93.9809 70.9428 92.3807 69.1002 92.3807 69.1002L85.8558 61.8004C85.8558 61.8004 84.9135 60.9322 85.2335 60.5956C85.518 60.2944 86.1225 60.755 86.5314 61.0917C88.5938 62.8103 91.5274 65.7337 94.3187 68.4623C94.8699 68.8698 97.3234 70.3759 100.577 68.2497C102.551 66.9563 102.959 65.3617 102.888 64.1746C102.746 62.5977 101.501 61.4637 101.501 61.4637L92.5764 52.5339C92.5764 52.5339 91.634 51.7366 91.9718 51.3291C92.2385 50.9924 92.8607 51.4708 93.2519 51.8075C96.0965 54.1817 103.777 61.198 103.777 61.198C103.884 61.2688 106.551 63.1646 109.822 61.0739C110.996 60.3298 111.742 59.1958 111.813 57.8847C112.027 55.5637 110.409 54.2171 110.409 54.2171Z" fill="white"/>
<path d="M67.1522 65.5387C65.7654 65.521 64.2542 66.336 64.0586 66.2297C63.9519 66.1588 64.1475 65.6095 64.272 65.2906C64.4142 64.9717 66.2277 59.5146 61.7829 57.6188C58.3871 56.1659 56.3069 57.7959 55.5957 58.5401C55.4179 58.735 55.329 58.7173 55.3113 58.4692C55.2401 57.477 54.7957 54.8193 51.8621 53.9334C47.6662 52.6577 44.9815 55.5635 44.2881 56.6266C43.9859 54.2524 41.959 52.392 39.4877 52.392C36.803 52.392 34.6162 54.5536 34.6162 57.229C34.6162 59.9044 36.7853 62.0837 39.4877 62.0837C40.7856 62.0837 41.9768 61.5699 42.848 60.7371C42.8836 60.7548 42.8836 60.808 42.8658 60.8966C42.6524 62.1014 42.2791 66.46 46.8661 68.2318C48.6974 68.9405 50.262 68.409 51.5599 67.5054C51.951 67.2396 52.0043 67.3459 51.951 67.718C51.7909 68.8342 52.0043 71.2439 55.3645 72.5904C57.9248 73.6358 59.4538 72.5727 60.4495 71.6514C60.8762 71.2616 61.0007 71.3147 61.0184 71.9348C61.1429 75.1772 63.8453 77.7463 67.1167 77.764C70.4947 77.764 73.2327 75.0355 73.2504 71.6691C73.2682 68.2672 70.5302 65.5741 67.1522 65.5387Z" fill="white"/>
<path d="M72.5037 0C32.4648 0 0 21.2261 0 47.2537C0 47.927 0 49.7874 0 50.0177C0 77.64 28.3756 100 72.5037 100C116.898 100 145.007 77.64 145.007 50.0177C145.007 49.0609 145.007 48.494 145.007 47.2537C145.007 21.2084 112.542 0 72.5037 0ZM141.736 42.0092C125.984 45.4996 114.232 50.567 111.28 51.8781C104.4 45.8894 88.505 32.1226 84.2024 28.8979C81.7489 27.0553 80.0598 26.0808 78.5841 25.6378C77.9263 25.4429 77.0018 25.2126 75.8284 25.2126C74.7261 25.2126 73.5527 25.4075 72.3259 25.7973C69.5346 26.6832 66.761 28.8625 64.0941 30.9887L63.9518 31.095C61.4628 33.0794 58.8669 35.1169 56.9112 35.5599C56.0578 35.7548 55.1867 35.8434 54.3155 35.8434C52.1287 35.8434 50.1552 35.2055 49.4262 34.2665C49.3018 34.107 49.3907 33.859 49.6752 33.5046L49.7107 33.4515L55.7556 26.949C60.5027 22.2183 64.9653 17.7711 75.2772 17.523C75.455 17.523 75.6151 17.523 75.7929 17.523C82.2112 17.523 88.6117 20.3933 89.3406 20.7123C95.35 23.6357 101.555 25.124 107.795 25.124C114.285 25.124 120.988 23.5294 128.01 20.3048C135.371 26.506 140.243 33.9298 141.736 42.0092ZM72.5037 2.78171C93.7498 2.78171 112.774 8.85896 125.557 18.4089C119.37 21.0666 113.485 22.4132 107.795 22.4132C101.982 22.4132 96.1678 21.0135 90.514 18.2672C90.2118 18.1254 83.1357 14.7945 75.7751 14.7945C75.5795 14.7945 75.3839 14.7945 75.1883 14.7945C66.5298 14.9894 61.6583 18.0546 58.3869 20.7477C55.2045 20.8186 52.4487 21.5982 49.9952 22.2714C47.8083 22.8738 45.9237 23.4054 44.0925 23.4054C43.328 23.4054 41.9767 23.3345 41.8523 23.3345C39.7365 23.2636 29.1402 20.6768 20.6773 17.4876C33.4427 8.46917 51.9331 2.78171 72.5037 2.78171ZM18.1703 19.3834C27.0066 22.9802 37.7452 25.7796 41.1411 25.9922C42.0834 26.0631 43.0969 26.1694 44.1103 26.1694C46.3682 26.1694 48.6084 25.5493 50.7775 24.9291C52.0576 24.5748 53.4799 24.185 54.9734 23.9015C54.5822 24.2913 54.1733 24.6811 53.7822 25.0886L47.6305 31.7151C47.1505 32.1935 46.1016 33.5046 46.795 35.0992C47.0616 35.7371 47.6305 36.3572 48.4128 36.8887C49.8707 37.8632 52.502 38.5365 54.9378 38.5365C55.8623 38.5365 56.7335 38.4479 57.5336 38.2707C60.1116 37.7038 62.814 35.5422 65.6765 33.2743C67.9522 31.467 71.2058 29.1814 73.6771 28.5081C74.3705 28.3132 75.2238 28.2069 75.9172 28.2069C76.1306 28.2069 76.3084 28.2069 76.4862 28.2424C78.1219 28.455 79.7043 29.0042 82.549 31.1127C87.5983 34.8866 109.929 54.3586 110.142 54.5535C110.16 54.5712 111.582 55.7938 111.476 57.8313C111.422 58.9653 110.782 59.9752 109.698 60.6662C108.738 61.2686 107.76 61.5698 106.764 61.5698C105.271 61.5698 104.24 60.8788 104.168 60.8257C104.08 60.7548 96.4345 53.7739 93.6254 51.4174C93.1809 51.0454 92.7364 50.7087 92.3097 50.7087C92.0786 50.7087 91.8652 50.815 91.723 50.9745C91.2785 51.5237 91.7763 52.2679 92.363 52.764L101.306 61.7116C101.324 61.7293 102.426 62.7569 102.551 64.1212C102.622 65.6095 101.911 66.8498 100.435 67.8065C99.3859 68.4975 98.3191 68.8519 97.2701 68.8519C95.9011 68.8519 94.941 68.2317 94.7277 68.0723L93.4476 66.8143C91.1008 64.511 88.6828 62.1368 86.9049 60.6662C86.4782 60.3118 86.0159 59.9752 85.5715 59.9752C85.3581 59.9752 85.1625 60.0461 85.0025 60.2232C84.8069 60.4536 84.6646 60.8434 85.1625 61.5167C85.358 61.7824 85.6069 62.0128 85.6069 62.0128L92.132 69.3125C92.1853 69.3834 93.4831 70.9072 92.2741 72.4309L92.043 72.7144C91.8474 72.927 91.6341 73.1219 91.4386 73.2991C90.3185 74.2027 88.8427 74.309 88.256 74.309C87.936 74.309 87.6338 74.2913 87.3671 74.2381C86.727 74.1318 86.2826 73.9369 86.087 73.7066L85.9981 73.618C85.6426 73.2459 82.3534 69.915 79.6331 67.6471C79.2776 67.3459 78.833 66.9738 78.3708 66.9738C78.1396 66.9738 77.9442 67.0624 77.7841 67.2396C77.2508 67.8242 78.0508 68.7101 78.4064 69.0291L83.9713 75.1417C83.9713 75.1949 83.9002 75.3189 83.7579 75.5138C83.5624 75.7796 82.8867 76.4529 80.8599 76.7186C80.611 76.7541 80.3621 76.7718 80.1132 76.7718C78.033 76.7718 75.8106 75.7619 74.6728 75.1595C75.1884 74.0609 75.4728 72.8561 75.4728 71.6513C75.4728 67.0801 71.7569 63.377 67.1877 63.377C67.0988 63.377 66.9921 63.377 66.8855 63.377C67.0277 61.2863 66.7432 57.3529 62.6718 55.6166C61.4984 55.1205 60.3427 54.8547 59.2048 54.8547C58.3159 54.8547 57.4625 55.0142 56.6624 55.3154C55.8268 53.6853 54.4222 52.4982 52.6087 51.8781C51.5953 51.5237 50.5996 51.3643 49.6218 51.3643C47.9328 51.3643 46.3682 51.8604 44.9814 52.8526C43.648 51.2048 41.6389 50.2303 39.5232 50.2303C37.6742 50.2303 35.8963 50.9745 34.5628 52.2679C32.8382 50.9568 25.9576 46.5982 7.57386 42.4344C6.70268 42.2395 4.7115 41.6726 3.44918 41.3005C5.15598 33.0617 10.4008 25.5493 18.1703 19.3834ZM52.2709 67.0801L52.0753 66.9029H51.8798C51.7198 66.9029 51.542 66.9738 51.3108 67.1332C50.3685 67.7888 49.4796 68.1077 48.5551 68.1077C48.0573 68.1077 47.5416 68.0014 47.026 67.8065C42.759 66.1588 43.0968 62.1368 43.3102 60.932C43.3457 60.6839 43.2746 60.489 43.1323 60.365L42.8301 60.1169L42.5457 60.3827C41.7101 61.18 40.6255 61.623 39.4876 61.623C37.0518 61.623 35.0606 59.6386 35.0606 57.2112C35.0606 54.7838 37.0518 52.7994 39.4876 52.7994C41.6922 52.7994 43.5769 54.4472 43.8435 56.6442L44.0036 57.8313L44.6614 56.8214C44.7325 56.6974 46.5282 54.0042 49.8173 54.0042C50.4396 54.0042 51.0797 54.1106 51.7375 54.3055C54.3511 55.1028 54.7956 57.477 54.8667 58.4514C54.92 59.0184 55.3289 59.0539 55.4 59.0539C55.6312 59.0539 55.7911 58.9121 55.9156 58.7881C56.4134 58.2743 57.4802 57.4238 59.1692 57.4238C59.9337 57.4238 60.7694 57.601 61.605 57.9731C65.7653 59.7626 63.8808 65.0248 63.863 65.078C63.5074 65.9461 63.4896 66.3359 63.8274 66.5663L63.9874 66.6371H64.1119C64.2897 66.6371 64.5385 66.5663 64.9119 66.4245C65.4808 66.2296 66.3342 65.9284 67.1343 65.9284C70.2634 65.9639 72.8237 68.5152 72.8237 71.5982C72.8237 74.7165 70.2634 77.2502 67.1343 77.2502C64.0763 77.2502 61.5695 74.876 61.4628 71.8462C61.4628 71.5804 61.4272 70.8894 60.8405 70.8894C60.6094 70.8894 60.396 71.0312 60.1471 71.2438C59.4715 71.8639 58.618 72.5018 57.3557 72.5018C56.7868 72.5018 56.1646 72.3778 55.5245 72.112C52.2887 70.8009 52.2531 68.5861 52.3775 67.7002C52.4309 67.523 52.4487 67.275 52.2709 67.0801ZM72.5037 91.6726C33.9938 91.6726 2.79135 71.7753 2.79135 47.2183C2.79135 46.2261 2.86241 45.2516 2.9513 44.2771C3.25355 44.348 6.31158 45.0744 6.95163 45.2162C25.7265 49.3799 31.9315 53.703 32.9805 54.5181C32.6249 55.3685 32.4471 56.2899 32.4471 57.2112C32.4471 61.0737 35.594 64.2275 39.4876 64.2275C39.9143 64.2275 40.3589 64.1921 40.7856 64.1035C41.3723 66.9561 43.2391 69.0999 46.1015 70.2162C46.9372 70.5351 47.7727 70.6945 48.6084 70.6945C49.1417 70.6945 49.6752 70.6237 50.2085 70.4996C50.7419 71.8285 51.9153 73.494 54.5822 74.5748C55.5067 74.9469 56.4491 75.1417 57.338 75.1417C58.067 75.1417 58.7959 75.0177 59.4892 74.752C60.7516 77.8349 63.7918 79.8902 67.1521 79.8902C69.3923 79.8902 71.5258 78.9865 73.0904 77.3742C74.4238 78.1183 77.2508 79.4649 80.1132 79.4649C80.4866 79.4649 80.8243 79.4472 81.1799 79.394C84.0068 79.0397 85.3403 77.9235 85.9447 77.073C86.0514 76.9313 86.1581 76.7718 86.247 76.5946C86.9226 76.7895 87.6516 76.949 88.505 76.949C90.0518 76.949 91.5452 76.4174 93.0386 75.3366C94.5143 74.2736 95.5633 72.7498 95.7233 71.4564C95.7233 71.4387 95.7233 71.421 95.7233 71.4033C96.2211 71.5096 96.7368 71.5627 97.2346 71.5627C98.8348 71.5627 100.399 71.0666 101.893 70.0921C104.791 68.1963 105.289 65.7335 105.235 64.1212C105.751 64.2275 106.266 64.2806 106.782 64.2806C108.276 64.2806 109.751 63.8377 111.156 62.9341C112.951 61.8001 114.036 60.0461 114.196 58.0085C114.303 56.6265 113.965 55.2268 113.236 54.022C118.072 51.949 129.13 47.927 142.145 45.0035C142.198 45.73 142.234 46.4741 142.234 47.2183C142.234 71.7753 111.013 91.6726 72.5037 91.6726Z" fill="#2D3277"/>
</svg>
