<svg width="1038" height="93" viewBox="0 0 1038 93" fill="none" xmlns="http://www.w3.org/2000/svg">
<circle cx="61" cy="15" r="15" fill="white"/>
<circle cx="439" cy="15" r="15" fill="white"/>
<circle cx="1006" cy="15" r="15" fill="white"/>
<circle cx="628" cy="15" r="15" fill="white"/>
<circle cx="817" cy="15" r="15" fill="white"/>
<line x1="72" y1="14.5" x2="1016" y2="14.5" stroke="white" strokeWidth="5"/>
<path d="M9.816 84.216C14.808 84.216 18.144 80.328 18.144 75.48V75.288C18.144 70.464 14.808 66.624 9.768 66.624C4.728 66.624 1.32 70.464 1.32 75.336V75.528C1.32 80.328 4.752 84.216 9.816 84.216ZM9.816 82.488C6.24 82.488 3.48 79.656 3.48 75.504V75.312C3.48 71.232 5.784 68.304 9.768 68.304C13.728 68.304 15.984 71.424 15.984 75.264V75.456C15.984 79.608 13.632 82.488 9.816 82.488ZM20.9891 84H22.9811V76.392C22.9811 74.136 24.6371 72.96 26.4851 72.96C28.5011 72.96 29.4371 73.944 29.4371 76.152V84H31.4291V76.296C31.4291 72.648 29.6051 71.232 27.0131 71.232C24.9491 71.232 23.5571 72.264 22.9811 73.44V71.448H20.9891V84ZM41.0929 84.216C44.5489 84.216 46.8049 81.576 46.8049 77.736V77.544C46.8049 73.632 44.3809 71.232 41.0929 71.232C39.2689 71.232 37.5649 72.336 36.8449 73.56V65.448H34.8529V84H36.8449V81.936C37.5649 83.184 39.0529 84.216 41.0929 84.216ZM40.9009 82.56C38.4529 82.56 36.7729 81.048 36.7729 77.832V77.64C36.7729 74.424 38.5489 72.888 40.8769 72.888C42.9889 72.888 44.7409 74.472 44.7409 77.64V77.832C44.7409 80.88 43.3969 82.56 40.9009 82.56ZM54.6278 84.216C58.2038 84.216 60.8198 81.6 60.8198 77.808V77.616C60.8198 73.848 58.2038 71.232 54.6518 71.232C51.0998 71.232 48.4838 73.872 48.4838 77.64V77.832C48.4838 81.504 51.0518 84.216 54.6278 84.216ZM54.6518 82.56C52.1078 82.56 50.5478 80.688 50.5478 77.832V77.64C50.5478 74.76 52.1318 72.888 54.6518 72.888C57.1478 72.888 58.7558 74.76 58.7558 77.664V77.832C58.7558 80.664 57.1718 82.56 54.6518 82.56ZM66.5681 84.216C68.4161 84.216 69.5441 83.592 70.4801 82.416V84H72.4721V75.72C72.4721 72.216 70.2881 71.232 67.8881 71.232C65.4641 71.232 63.1841 72.288 62.9201 75.144H64.9121C65.1041 73.608 66.0641 72.888 67.7921 72.888C69.7121 72.888 70.4801 73.728 70.4801 75.72V76.632H68.6801C65.4641 76.632 62.3921 77.616 62.3921 80.52C62.3921 83.088 64.2401 84.216 66.5681 84.216ZM66.7601 82.632C65.0081 82.632 64.3841 81.816 64.3841 80.52C64.3841 78.672 66.2321 78.048 68.7521 78.048H70.4801V79.608C70.4801 81.552 68.8721 82.632 66.7601 82.632ZM75.9051 84H77.8971V77.112C77.8971 74.016 79.5051 73.224 82.0251 73.104V71.232C79.7691 71.304 78.6891 72.288 77.8971 73.704V71.448H75.9051V84ZM88.8249 84.216C90.6489 84.216 92.4009 83.064 93.1209 81.84V84H95.1129V65.448H93.1209V73.464C92.4009 72.24 91.1049 71.232 89.0169 71.232C85.5609 71.232 83.1609 73.944 83.1609 77.784V77.976C83.1609 81.888 85.5369 84.216 88.8249 84.216ZM89.0409 82.56C86.9289 82.56 85.2249 81.048 85.2249 77.88V77.688C85.2249 74.64 86.7129 72.888 89.2089 72.888C91.6569 72.888 93.1929 74.4 93.1929 77.616V77.808C93.1929 81.024 91.3689 82.56 89.0409 82.56ZM99.6718 68.832C100.392 68.832 100.992 68.232 100.992 67.512C100.992 66.792 100.392 66.192 99.6718 66.192C98.9518 66.192 98.3518 66.792 98.3518 67.512C98.3518 68.232 98.9518 68.832 99.6718 68.832ZM98.7118 84H100.704V71.448H98.7118V84ZM104.301 84H106.293V76.392C106.293 74.136 107.949 72.96 109.797 72.96C111.813 72.96 112.749 73.944 112.749 76.152V84H114.741V76.296C114.741 72.648 112.917 71.232 110.325 71.232C108.261 71.232 106.869 72.264 106.293 73.44V71.448H104.301V84ZM123.181 88.584C126.685 88.584 129.157 86.808 129.181 83.16V71.448H127.189V73.464C126.469 72.24 125.173 71.232 123.085 71.232C119.629 71.232 117.229 74.064 117.229 77.472V77.64C117.229 81.096 119.653 83.592 122.941 83.592C124.765 83.592 126.469 82.44 127.189 81.216V83.04C127.189 85.728 125.629 86.904 123.157 86.904C121.021 86.904 119.821 86.16 119.533 84.72H117.493C117.829 86.832 119.461 88.584 123.181 88.584ZM123.157 81.936C121.045 81.936 119.293 80.304 119.293 77.568V77.376C119.293 74.736 120.781 72.888 123.277 72.888C125.725 72.888 127.261 74.52 127.261 77.328V77.496C127.261 80.304 125.485 81.936 123.157 81.936Z" fill="white"/>
<path d="M420.16 84H430.6V82.296H422.248V76.08H428.632V74.376H422.248V68.544H430.168V66.84H420.16V84ZM440.695 84.216C445.687 84.216 449.023 80.328 449.023 75.48V75.288C449.023 70.464 445.687 66.624 440.647 66.624C435.607 66.624 432.199 70.464 432.199 75.336V75.528C432.199 80.328 435.631 84.216 440.695 84.216ZM440.695 82.488C437.119 82.488 434.359 79.656 434.359 75.504V75.312C434.359 71.232 436.663 68.304 440.647 68.304C444.607 68.304 446.863 71.424 446.863 75.264V75.456C446.863 79.608 444.511 82.488 440.695 82.488ZM452.013 84H453.933V69.552L459.813 84H460.461L466.149 69.552V84H468.237V66.84H465.357L460.221 80.208L454.917 66.84H452.013V84Z" fill="white"/>
<path d="M987.16 84H997.6V82.296H989.248V76.08H995.632V74.376H989.248V68.544H997.168V66.84H987.16V84ZM1007.7 84.216C1012.69 84.216 1016.02 80.328 1016.02 75.48V75.288C1016.02 70.464 1012.69 66.624 1007.65 66.624C1002.61 66.624 999.199 70.464 999.199 75.336V75.528C999.199 80.328 1002.63 84.216 1007.7 84.216ZM1007.7 82.488C1004.12 82.488 1001.36 79.656 1001.36 75.504V75.312C1001.36 71.232 1003.66 68.304 1007.65 68.304C1011.61 68.304 1013.86 71.424 1013.86 75.264V75.456C1013.86 79.608 1011.51 82.488 1007.7 82.488ZM1019.01 84H1020.93V69.552L1026.81 84H1027.46L1033.15 69.552V84H1035.24V66.84H1032.36L1027.22 80.208L1021.92 66.84H1019.01V84Z" fill="white"/>
<path d="M579.336 84.216C583.176 84.216 585.912 82.272 586.512 78.312H584.568C584.136 81.096 582.192 82.512 579.384 82.512C575.688 82.512 573.48 79.872 573.48 75.504V75.312C573.48 70.992 575.856 68.232 579.408 68.232C582.336 68.232 583.848 69.576 584.28 72.192H586.344C585.984 68.472 582.96 66.576 579.384 66.576C574.728 66.576 571.32 70.248 571.32 75.336V75.528C571.32 80.808 574.368 84.216 579.336 84.216ZM589.067 84H591.059V77.112C591.059 74.016 592.667 73.224 595.187 73.104V71.232C592.931 71.304 591.851 72.288 591.059 73.704V71.448H589.067V84ZM602.395 84.216C605.227 84.216 607.315 82.896 607.747 80.376H605.755C605.491 81.84 604.363 82.56 602.419 82.56C599.851 82.56 598.483 80.976 598.387 78.12H607.843V77.472C607.843 72.984 605.107 71.232 602.203 71.232C598.747 71.232 596.323 73.872 596.323 77.664V77.856C596.323 81.72 598.843 84.216 602.395 84.216ZM598.459 76.512C598.795 74.28 600.163 72.888 602.203 72.888C604.267 72.888 605.611 73.92 605.803 76.512H598.459ZM613.681 84.216C615.529 84.216 616.657 83.592 617.593 82.416V84H619.585V75.72C619.585 72.216 617.401 71.232 615.001 71.232C612.577 71.232 610.297 72.288 610.033 75.144H612.025C612.217 73.608 613.177 72.888 614.905 72.888C616.825 72.888 617.593 73.728 617.593 75.72V76.632H615.793C612.577 76.632 609.505 77.616 609.505 80.52C609.505 83.088 611.353 84.216 613.681 84.216ZM613.873 82.632C612.121 82.632 611.497 81.816 611.497 80.52C611.497 78.672 613.345 78.048 615.865 78.048H617.593V79.608C617.593 81.552 615.985 82.632 613.873 82.632ZM626.834 84.168C627.65 84.168 628.13 84.048 628.538 83.904V82.224C628.106 82.392 627.626 82.488 627.002 82.488C625.994 82.488 625.442 81.888 625.442 80.664V73.128H628.37V71.448H625.442V68.592H623.45V71.448H621.65V73.128H623.45V80.856C623.45 82.824 624.554 84.168 626.834 84.168ZM636.205 84.216C639.037 84.216 641.125 82.896 641.557 80.376H639.565C639.301 81.84 638.173 82.56 636.229 82.56C633.661 82.56 632.293 80.976 632.197 78.12H641.653V77.472C641.653 72.984 638.917 71.232 636.013 71.232C632.557 71.232 630.133 73.872 630.133 77.664V77.856C630.133 81.72 632.653 84.216 636.205 84.216ZM632.269 76.512C632.605 74.28 633.973 72.888 636.013 72.888C638.077 72.888 639.421 73.92 639.613 76.512H632.269ZM650.101 88.368H652.093V81.936C652.813 83.184 654.277 84.216 656.341 84.216C659.797 84.216 662.053 81.576 662.053 77.736V77.544C662.053 73.632 659.629 71.232 656.341 71.232C654.517 71.232 652.813 72.336 652.093 73.56V71.448H650.101V88.368ZM656.149 82.56C653.701 82.56 652.021 81.048 652.021 77.832V77.64C652.021 74.424 653.797 72.888 656.125 72.888C658.237 72.888 659.989 74.472 659.989 77.64V77.832C659.989 80.88 658.645 82.56 656.149 82.56ZM664.716 84H666.732V65.448H664.716V84ZM673.473 84.216C675.321 84.216 676.449 83.592 677.385 82.416V84H679.377V75.72C679.377 72.216 677.193 71.232 674.793 71.232C672.369 71.232 670.089 72.288 669.825 75.144H671.817C672.009 73.608 672.969 72.888 674.697 72.888C676.617 72.888 677.385 73.728 677.385 75.72V76.632H675.585C672.369 76.632 669.297 77.616 669.297 80.52C669.297 83.088 671.145 84.216 673.473 84.216ZM673.665 82.632C671.913 82.632 671.289 81.816 671.289 80.52C671.289 78.672 673.137 78.048 675.657 78.048H677.385V79.608C677.385 81.552 675.777 82.632 673.665 82.632ZM682.81 84H684.802V76.392C684.802 74.136 686.458 72.96 688.306 72.96C690.322 72.96 691.258 73.944 691.258 76.152V84H693.25V76.296C693.25 72.648 691.426 71.232 688.834 71.232C686.77 71.232 685.378 72.264 684.802 73.44V71.448H682.81V84Z" fill="white"/>
<path d="M791.704 84.216C795.112 84.216 797.632 82.032 797.632 79.152C797.632 75.912 795.616 74.76 791.8 74.16C788.296 73.632 787.672 72.768 787.672 71.088C787.672 69.48 788.896 68.304 791.248 68.304C793.624 68.304 794.872 69.192 795.28 71.352H797.152C796.816 68.304 794.68 66.624 791.248 66.624C788.008 66.624 785.728 68.64 785.728 71.28C785.728 74.328 787.864 75.456 791.464 76.008C794.728 76.536 795.616 77.352 795.616 79.296C795.616 81.24 793.912 82.536 791.704 82.536C788.248 82.536 787.432 80.808 787.168 78.768H785.152C785.464 81.696 787.12 84.216 791.704 84.216ZM805.719 84.216C808.551 84.216 810.639 82.896 811.071 80.376H809.079C808.815 81.84 807.687 82.56 805.743 82.56C803.175 82.56 801.807 80.976 801.711 78.12H811.167V77.472C811.167 72.984 808.431 71.232 805.527 71.232C802.071 71.232 799.647 73.872 799.647 77.664V77.856C799.647 81.72 802.167 84.216 805.719 84.216ZM801.783 76.512C802.119 74.28 803.487 72.888 805.527 72.888C807.591 72.888 808.935 73.92 809.127 76.512H801.783ZM812.048 84H814.184L817.64 78.936L821.024 84H823.376L818.792 77.4L822.944 71.448H820.784L817.736 76.008L814.664 71.448H812.336L816.536 77.544L812.048 84ZM829.408 84.168C830.224 84.168 830.704 84.048 831.112 83.904V82.224C830.68 82.392 830.2 82.488 829.576 82.488C828.568 82.488 828.016 81.888 828.016 80.664V73.128H830.944V71.448H828.016V68.592H826.024V71.448H824.224V73.128H826.024V80.856C826.024 82.824 827.128 84.168 829.408 84.168ZM838.851 84.216C842.427 84.216 845.043 81.6 845.043 77.808V77.616C845.043 73.848 842.427 71.232 838.875 71.232C835.323 71.232 832.707 73.872 832.707 77.64V77.832C832.707 81.504 835.275 84.216 838.851 84.216ZM838.875 82.56C836.331 82.56 834.771 80.688 834.771 77.832V77.64C834.771 74.76 836.355 72.888 838.875 72.888C841.371 72.888 842.979 74.76 842.979 77.664V77.832C842.979 80.664 841.395 82.56 838.875 82.56ZM851.895 84.216C853.911 84.216 855.303 83.184 855.879 82.008V84H857.871V71.448H855.879V79.056C855.879 81.312 854.199 82.488 852.423 82.488C850.455 82.488 849.519 81.504 849.519 79.296V71.448H847.527V79.392C847.527 82.848 849.399 84.216 851.895 84.216Z" fill="white"/>
<circle cx="250" cy="15" r="15" fill="white"/>
<path d="M178.48 84.24C182.56 84.24 185.488 82.152 185.992 78.024H182.872C182.536 80.448 180.856 81.648 178.48 81.648C175.312 81.648 173.464 79.368 173.464 75.504V75.312C173.464 71.472 175.432 69.12 178.456 69.12C180.928 69.12 182.2 70.296 182.56 72.576H185.8C185.416 68.544 182.368 66.576 178.432 66.576C173.656 66.576 170.104 70.176 170.104 75.336V75.528C170.104 80.808 173.104 84.24 178.48 84.24ZM191.489 84.24C193.409 84.24 194.513 83.544 195.329 82.464V84H198.185V75.768C198.185 72.336 195.977 71.184 193.169 71.184C190.361 71.184 188.033 72.408 187.793 75.336H190.601C190.745 74.088 191.489 73.368 193.001 73.368C194.705 73.368 195.281 74.208 195.281 75.888V76.536H193.721C190.121 76.536 187.289 77.592 187.289 80.52C187.289 83.136 189.185 84.24 191.489 84.24ZM192.185 82.152C190.745 82.152 190.169 81.456 190.169 80.4C190.169 78.864 191.585 78.36 193.793 78.36H195.281V79.608C195.281 81.216 193.961 82.152 192.185 82.152ZM205.282 84.216C206.17 84.216 206.794 84.072 207.25 83.904V81.6C206.842 81.768 206.41 81.84 205.834 81.84C204.922 81.84 204.394 81.336 204.394 80.232V73.632H207.154V71.448H204.394V68.688H201.49V71.448H199.81V73.632H201.49V80.496C201.49 82.872 202.786 84.216 205.282 84.216ZM214.91 84.24C218.126 84.24 220.262 82.8 220.67 80.16H217.862C217.646 81.384 216.734 82.08 214.982 82.08C212.822 82.08 211.622 80.736 211.526 78.36H220.718V77.52C220.718 73.032 217.91 71.184 214.79 71.184C211.214 71.184 208.55 73.776 208.55 77.664V77.856C208.55 81.816 211.214 84.24 214.91 84.24ZM211.574 76.416C211.862 74.472 213.038 73.296 214.79 73.296C216.59 73.296 217.694 74.256 217.838 76.416H211.574ZM228.183 88.608C232.071 88.608 234.543 86.76 234.567 83.064V71.448H231.663V73.368C230.943 72.12 229.695 71.184 227.631 71.184C224.391 71.184 221.991 73.824 221.991 77.352V77.52C221.991 81.144 224.415 83.496 227.559 83.496C229.407 83.496 230.967 82.368 231.663 81.168V83.016C231.663 85.272 230.415 86.4 228.159 86.4C226.263 86.4 225.303 85.68 225.063 84.432H222.135C222.471 86.832 224.247 88.608 228.183 88.608ZM228.279 81.264C226.407 81.264 224.967 79.824 224.967 77.496V77.304C224.967 75.024 226.215 73.464 228.375 73.464C230.463 73.464 231.759 74.88 231.759 77.256V77.424C231.759 79.824 230.295 81.264 228.279 81.264ZM243.131 84.24C246.827 84.24 249.587 81.696 249.587 77.784V77.592C249.587 73.752 246.827 71.184 243.155 71.184C239.459 71.184 236.699 73.776 236.699 77.664V77.856C236.699 81.672 239.435 84.24 243.131 84.24ZM243.155 81.984C240.947 81.984 239.675 80.376 239.675 77.808V77.616C239.675 75.024 240.995 73.464 243.155 73.464C245.315 73.464 246.611 75.048 246.611 77.64V77.808C246.611 80.376 245.315 81.984 243.155 81.984ZM251.731 84H254.635V77.472C254.635 74.808 256.171 73.992 258.715 73.968V71.256C256.603 71.28 255.427 72.216 254.635 73.8V71.448H251.731V84ZM262.278 69.384C263.238 69.384 264.006 68.664 264.006 67.728C264.006 66.768 263.238 66.048 262.278 66.048C261.318 66.048 260.55 66.768 260.55 67.728C260.55 68.664 261.318 69.384 262.278 69.384ZM260.862 84H263.766V71.448H260.862V84ZM265.506 84H276.258V81.672H269.826L276.45 71.856V71.448H266.154V73.752H272.154L265.506 83.664V84ZM283.561 84.24C286.777 84.24 288.913 82.8 289.321 80.16H286.513C286.297 81.384 285.385 82.08 283.633 82.08C281.473 82.08 280.273 80.736 280.177 78.36H289.369V77.52C289.369 73.032 286.561 71.184 283.441 71.184C279.865 71.184 277.201 73.776 277.201 77.664V77.856C277.201 81.816 279.865 84.24 283.561 84.24ZM280.225 76.416C280.513 74.472 281.689 73.296 283.441 73.296C285.241 73.296 286.345 74.256 286.489 76.416H280.225ZM300.993 84.216C301.881 84.216 302.505 84.072 302.961 83.904V81.6C302.553 81.768 302.121 81.84 301.545 81.84C300.633 81.84 300.105 81.336 300.105 80.232V73.632H302.865V71.448H300.105V68.688H297.201V71.448H295.521V73.632H297.201V80.496C297.201 82.872 298.497 84.216 300.993 84.216ZM303.877 84H306.901L309.901 79.464L312.829 84H316.213L311.725 77.352L315.781 71.448H312.733L310.141 75.504L307.525 71.448H304.165L308.245 77.568L303.877 84ZM317.957 84H320.861V76.608C320.861 74.616 322.181 73.608 323.813 73.608C325.541 73.608 326.309 74.472 326.309 76.368V84H329.213V76.104C329.213 72.648 327.437 71.184 324.917 71.184C322.853 71.184 321.461 72.216 320.861 73.44V71.448H317.957V84ZM331.374 73.008H333.51L333.918 66.84H330.966L331.374 73.008ZM340.324 84.24C343.54 84.24 345.34 82.776 345.34 80.232C345.34 77.568 343.588 76.848 340.636 76.392C338.644 76.056 338.044 75.696 338.044 74.784C338.044 73.896 338.788 73.296 340.036 73.296C341.38 73.296 342.028 73.824 342.268 74.976H344.956C344.644 72.144 342.604 71.184 340.036 71.184C337.684 71.184 335.332 72.432 335.332 74.952C335.332 77.304 336.556 78.24 339.868 78.768C341.716 79.08 342.556 79.464 342.556 80.496C342.556 81.552 341.86 82.104 340.3 82.104C338.596 82.104 337.948 81.36 337.804 80.088H335.068C335.188 82.752 337.084 84.24 340.324 84.24Z" fill="white"/>
</svg>
